<?xml version="1.0" encoding="UTF-8" standalone="no"?>
<svg
   viewBox="0 0 1280 320"
   width="1280"
   height="320"
   role="img"
   aria-label="Nexum keycard — Rust SDK + CLI for Status Keycards"
   font-family="'JetBrains Mono','IBM Plex Mono',ui-monospace,Menlo,Consolas,'Liberation Mono',monospace"
   version="1.1"
   id="svg12"
   xmlns="http://www.w3.org/2000/svg"
   xmlns:svg="http://www.w3.org/2000/svg">
  <defs
     id="defs12" />
  <rect
     width="1280"
     height="320"
     fill="#0a0b0a"
     id="rect1" />
  <g
     stroke="#5e7c4e"
     stroke-width="1"
     fill="none"
     id="g4">
    <path
       d="M24 24 L24 56 M24 24 L56 24"
       id="path1" />
    <path
       d="M1256 24 L1256 56 M1256 24 L1224 24"
       id="path2" />
    <path
       d="M24 296 L24 264 M24 296 L56 296"
       id="path3" />
    <path
       d="M1256 296 L1256 264 M1256 296 L1224 296"
       id="path4" />
  </g>
  <circle
     cx="74"
     cy="60"
     r="5"
     fill="#a8d68a"
     id="circle4" />
  <path
     d="M 93.296,65 V 53.32 h 2.192 l 3.392,9.712 Q 98.848,62.584 98.8,61.944 98.752,61.304 98.72,60.616 98.704,59.928 98.704,59.352 V 53.32 h 1.6 V 65 h -2.176 l -3.392,-9.712 q 0.032,0.432 0.064,1.056 0.048,0.608 0.08,1.28 0.032,0.672 0.032,1.248 V 65 Z m 13.00801,0 V 53.32 h 6.864 v 1.536 h -5.168 v 3.328 h 4.608 v 1.488 h -4.608 v 3.792 h 5.168 V 65 Z m 11.84,0 3.296,-5.952 -3.104,-5.728 h 1.952 l 1.632,3.184 q 0.144,0.304 0.288,0.608 0.144,0.304 0.224,0.464 0.064,-0.16 0.192,-0.464 0.144,-0.304 0.304,-0.608 l 1.664,-3.184 h 1.872 l -3.104,5.664 3.296,6.016 h -1.952 l -1.808,-3.456 q -0.16,-0.304 -0.304,-0.608 -0.144,-0.32 -0.224,-0.496 -0.064,0.176 -0.208,0.496 -0.144,0.304 -0.288,0.592 l -1.84,3.472 z m 17.05601,0.16 q -1.68,0 -2.592,-0.912 -0.912,-0.928 -0.912,-2.512 V 53.32 h 1.728 v 8.4 q 0,0.896 0.448,1.408 0.448,0.512 1.328,0.512 0.88,0 1.328,-0.512 0.448,-0.512 0.448,-1.408 v -8.4 h 1.728 v 8.416 q 0,1.6 -0.912,2.512 -0.912,0.912 -2.592,0.912 z m 9.008,-0.16 V 53.32 h 2.368 l 1.392,5.04 1.44,-5.04 h 2.384 V 65 h -1.632 v -5.216 q 0,-0.896 0.032,-1.936 0.048,-1.056 0.112,-2.08 0.064,-1.024 0.144,-1.856 l -1.76,5.952 h -1.456 l -1.696,-5.808 q 0.144,1.136 0.224,2.608 0.08,1.472 0.08,3.12 V 65 Z"
     id="text4"
     style="font-weight:600;font-size:16px;letter-spacing:3.2;fill:#d6d6cf"
     aria-label="NEXUM" />
  <line
     x1="160"
     y1="48"
     x2="160"
     y2="72"
     stroke="#1f221f"
     stroke-width="1"
     id="line4" />
  <path
     d="m 173.288,65 v -7.7 h 1.26 v 1.47 h 0.014 q 0.098,-0.77 0.63,-1.19 0.532,-0.42 1.414,-0.42 1.162,0 1.848,0.714 0.686,0.714 0.686,1.946 V 65 h -1.26 v -4.956 q 0,-0.882 -0.448,-1.344 -0.434,-0.476 -1.19,-0.476 -0.784,0 -1.246,0.49 -0.448,0.49 -0.448,1.386 V 65 Z m 9.41201,0 2.73,-3.962 -2.562,-3.738 h 1.484 l 1.526,2.38 q 0.098,0.154 0.182,0.336 0.098,0.182 0.154,0.294 0.042,-0.112 0.126,-0.294 0.098,-0.182 0.196,-0.336 l 1.526,-2.38 h 1.484 l -2.562,3.752 2.716,3.948 h -1.484 l -1.652,-2.52 q -0.098,-0.154 -0.196,-0.35 -0.084,-0.21 -0.154,-0.336 -0.056,0.126 -0.168,0.336 -0.098,0.196 -0.21,0.35 l -1.652,2.52 z m 10.14,0 v -7.7 h 1.092 v 1.022 h 0.028 q 0.07,-0.518 0.406,-0.84 0.35,-0.322 0.882,-0.322 0.504,0 0.854,0.294 0.35,0.294 0.504,0.798 h 0.014 q 0.098,-0.504 0.434,-0.798 0.35,-0.294 0.882,-0.294 0.742,0 1.176,0.56 0.448,0.546 0.448,1.428 V 65 h -1.176 v -5.866 q 0,-0.462 -0.224,-0.728 -0.224,-0.28 -0.616,-0.28 -0.378,0 -0.602,0.266 -0.224,0.266 -0.224,0.728 V 65 h -1.036 v -5.866 q 0,-0.462 -0.224,-0.728 -0.224,-0.28 -0.602,-0.28 -0.392,0 -0.616,0.266 -0.224,0.266 -0.224,0.728 V 65 Z m 11.12001,-4.06 v -1.12 h 4.48 v 1.12 z m 9.608,4.06 v -7.7 h 1.26 v 1.47 h 0.028 q 0.098,-0.742 0.63,-1.176 0.532,-0.434 1.428,-0.434 1.204,0 1.848,0.728 0.658,0.714 0.658,2.044 v 0.658 h -1.26 v -0.658 q 0,-1.68 -1.638,-1.68 -0.826,0 -1.26,0.476 -0.434,0.476 -0.434,1.372 V 65 Z m 12.32401,0.112 q -1.288,0 -2.002,-0.574 -0.7,-0.588 -0.7,-1.652 h 1.26 q 0,0.532 0.378,0.84 0.378,0.294 1.064,0.294 h 0.616 q 0.7,0 1.078,-0.308 0.392,-0.308 0.392,-0.868 0,-0.994 -0.91,-1.12 l -2.128,-0.308 q -0.784,-0.112 -1.218,-0.644 -0.434,-0.546 -0.434,-1.428 0,-1.008 0.686,-1.582 0.7,-0.574 1.918,-0.574 h 0.616 q 1.12,0 1.82,0.56 0.714,0.546 0.77,1.442 h -1.274 q -0.028,-0.406 -0.392,-0.672 -0.35,-0.266 -0.924,-0.266 h -0.616 q -0.644,0 -1.008,0.294 -0.364,0.294 -0.364,0.798 0,0.812 0.742,0.924 l 1.988,0.28 q 1.96,0.28 1.96,2.296 0,1.078 -0.714,1.68 -0.7,0.588 -1.988,0.588 z m 17.15801,1.428 4.97,-13.16 h 1.33 l -4.97,13.16 z M 263.35805,65 V 54.78 h 1.26 v 5.698 h 1.47 l 2.156,-3.178 h 1.442 l -2.478,3.668 2.618,4.032 h -1.47 l -2.24,-3.43 h -1.498 V 65 Z m 12.842,0.14 q -1.358,0 -2.198,-0.812 -0.826,-0.826 -0.826,-2.268 v -1.82 q 0,-1.442 0.826,-2.254 0.84,-0.826 2.198,-0.826 0.91,0 1.582,0.364 0.686,0.364 1.064,1.022 0.378,0.658 0.378,1.554 v 1.372 h -4.816 V 62.2 q 0,0.854 0.49,1.358 0.49,0.49 1.302,0.49 0.7,0 1.148,-0.266 0.462,-0.28 0.56,-0.742 h 1.26 q -0.126,0.966 -0.938,1.54 -0.812,0.56 -2.03,0.56 z m -1.792,-4.648 h 3.584 V 60.1 q 0,-0.91 -0.476,-1.4 -0.462,-0.504 -1.316,-0.504 -0.854,0 -1.33,0.504 -0.462,0.49 -0.462,1.4 z m 10.08401,7.028 1.134,-2.996 -2.87,-7.224 h 1.358 l 1.82,4.76 q 0.112,0.28 0.21,0.588 0.098,0.308 0.14,0.532 0.042,-0.224 0.14,-0.532 0.098,-0.308 0.196,-0.588 l 1.694,-4.76 h 1.33 l -3.836,10.22 z m 11.82,-2.38 q -1.4,0 -2.24,-0.784 -0.84,-0.784 -0.84,-2.156 v -2.1 q 0,-1.372 0.84,-2.156 0.84,-0.784 2.24,-0.784 1.33,0 2.142,0.714 0.826,0.714 0.868,1.946 h -1.26 q -0.042,-0.742 -0.504,-1.134 -0.462,-0.406 -1.246,-0.406 -0.826,0 -1.33,0.476 -0.49,0.462 -0.49,1.33 V 62.2 q 0,0.868 0.49,1.344 0.504,0.476 1.33,0.476 0.784,0 1.246,-0.406 0.462,-0.406 0.504,-1.134 h 1.26 q -0.042,1.232 -0.868,1.946 -0.812,0.714 -2.142,0.714 z m 9.21602,0 q -1.19,0 -1.89,-0.658 -0.7,-0.672 -0.7,-1.75 0,-0.714 0.322,-1.246 0.322,-0.532 0.896,-0.826 0.574,-0.308 1.316,-0.308 h 2.38 V 59.75 q 0,-1.498 -1.638,-1.498 -0.728,0 -1.176,0.266 -0.448,0.266 -0.476,0.742 h -1.26 q 0.07,-0.91 0.84,-1.498 0.784,-0.602 2.072,-0.602 1.4,0 2.142,0.672 0.756,0.672 0.756,1.876 V 65 h -1.246 v -1.4 h -0.028 q -0.112,0.714 -0.714,1.134 -0.602,0.406 -1.596,0.406 z m 0.308,-1.064 q 0.924,0 1.47,-0.448 0.546,-0.448 0.546,-1.218 v -1.078 h -2.24 q -0.616,0 -1.008,0.378 -0.378,0.364 -0.378,0.98 0,0.644 0.42,1.022 0.434,0.364 1.19,0.364 z m 7.732,0.924 v -7.7 h 1.26 v 1.47 h 0.028 q 0.098,-0.742 0.63,-1.176 0.532,-0.434 1.428,-0.434 1.204,0 1.848,0.728 0.658,0.714 0.658,2.044 v 0.658 h -1.26 v -0.658 q 0,-1.68 -1.638,-1.68 -0.826,0 -1.26,0.476 -0.434,0.476 -0.434,1.372 V 65 Z m 12.184,0.14 q -1.148,0 -1.848,-0.77 -0.686,-0.77 -0.686,-2.086 V 60.03 q 0,-1.33 0.686,-2.1 0.686,-0.77 1.848,-0.77 0.868,0 1.428,0.434 0.574,0.434 0.686,1.176 h 0.014 l -0.028,-1.75 v -2.24 h 1.26 V 65 h -1.26 v -1.47 h -0.014 q -0.098,0.756 -0.658,1.19 -0.56,0.42 -1.428,0.42 z m 0.42,-1.092 q 0.784,0 1.232,-0.49 0.448,-0.49 0.448,-1.358 v -2.1 q 0,-0.868 -0.448,-1.358 -0.448,-0.49 -1.232,-0.49 -0.798,0 -1.246,0.42 -0.448,0.406 -0.448,1.358 v 2.24 q 0,0.938 0.448,1.358 0.448,0.42 1.246,0.42 z"
     id="text5"
     style="font-size:14px;letter-spacing:1.6;fill:#a8d68a"
     aria-label="nxm-rs / keycard" />
  <path
     d="m 74,141.61 v -7.8 h 7.8 v 7.8 z m 0.65,-0.65 h 6.5 v -6.5 h -6.5 z m 1.17,-2.73 v -1.04 h 4.16 v 1.04 z M 95.609009,142 v -9.49 h 1.17 v 4.056 h 3.042 v -4.056 h 1.170001 V 142 h -1.170001 v -4.368 h -3.042 V 142 Z m 9.641011,0 2.47,-9.49 h 1.573 l 2.457,9.49 h -1.183 l -0.624,-2.522 h -2.873 l -0.624,2.522 z m 2.054,-3.51 h 2.392 l -0.728,-2.925 q -0.208,-0.832 -0.325,-1.391 -0.117,-0.559 -0.143,-0.728 -0.026,0.169 -0.143,0.728 -0.117,0.559 -0.325,1.378 z m 8.705,3.51 v -9.49 h 2.925 q 0.845,0 1.482,0.351 0.637,0.338 0.988,0.949 0.351,0.611 0.351,1.43 0,0.962 -0.494,1.651 -0.494,0.689 -1.313,0.962 l 1.937,4.147 h -1.287 l -1.859,-4.03 h -1.573 V 142 Z m 1.157,-5.083 h 1.768 q 0.728,0 1.17,-0.455 0.442,-0.468 0.442,-1.222 0,-0.767 -0.442,-1.222 -0.442,-0.455 -1.17,-0.455 h -1.768 z m 9.03001,5.083 v -9.49 h 2.457 q 0.923,0 1.586,0.351 0.676,0.351 1.04,0.988 0.377,0.637 0.377,1.508 v 3.783 q 0,0.871 -0.377,1.521 -0.364,0.637 -1.04,0.988 -0.663,0.351 -1.586,0.351 z m 1.17,-1.04 h 1.287 q 0.858,0 1.339,-0.481 0.494,-0.481 0.494,-1.339 v -3.783 q 0,-0.845 -0.494,-1.326 -0.481,-0.481 -1.339,-0.481 h -1.287 z m 9.225,1.04 -1.131,-9.49 h 1.079 l 0.741,7.02 q 0.052,0.429 0.078,0.897 0.026,0.455 0.039,0.728 0.026,-0.273 0.065,-0.728 0.052,-0.468 0.104,-0.897 l 0.936,-7.02 h 1.261 l 0.858,7.02 q 0.052,0.429 0.104,0.897 0.052,0.455 0.078,0.728 0.026,-0.273 0.052,-0.728 0.039,-0.468 0.091,-0.897 l 0.767,-7.02 h 1.027 l -1.157,9.49 h -1.469 l -0.858,-7.15 q -0.052,-0.442 -0.078,-0.858 -0.026,-0.429 -0.052,-0.663 -0.026,0.234 -0.052,0.663 -0.026,0.416 -0.091,0.858 l -0.923,7.15 z m 9.459,0 2.47,-9.49 h 1.573 l 2.457,9.49 h -1.183 l -0.624,-2.522 h -2.873 l -0.624,2.522 z m 2.054,-3.51 h 2.392 l -0.728,-2.925 q -0.208,-0.832 -0.325,-1.391 -0.117,-0.559 -0.143,-0.728 -0.026,0.169 -0.143,0.728 -0.117,0.559 -0.325,1.378 z m 8.70501,3.51 v -9.49 h 2.925 q 0.845,0 1.482,0.351 0.637,0.338 0.988,0.949 0.351,0.611 0.351,1.43 0,0.962 -0.494,1.651 -0.494,0.689 -1.313,0.962 l 1.937,4.147 h -1.287 l -1.859,-4.03 h -1.573 V 142 Z m 1.157,-5.083 h 1.768 q 0.728,0 1.17,-0.455 0.442,-0.468 0.442,-1.222 0,-0.767 -0.442,-1.222 -0.442,-0.455 -1.17,-0.455 h -1.768 z m 9.13401,5.083 v -9.49 h 5.46 v 1.066 h -4.303 v 2.938 h 3.848 v 1.04 h -3.848 v 3.38 h 4.303 V 142 Z m 10.72,-3.77 v -1.04 h 4.16 v 1.04 z m 9.58901,3.77 v -9.49 h 2.691 q 1.3,0 2.028,0.65 0.741,0.65 0.741,1.807 0,0.728 -0.468,1.313 -0.455,0.585 -1.196,0.728 v 0.039 q 0.559,0.065 0.975,0.39 0.429,0.325 0.663,0.832 0.247,0.494 0.247,1.092 0,1.222 -0.754,1.937 -0.741,0.702 -2.041,0.702 z m 1.144,-5.447 h 1.534 q 0.754,0 1.183,-0.403 0.442,-0.403 0.442,-1.092 0,-0.689 -0.429,-1.092 -0.429,-0.403 -1.183,-0.403 h -1.547 z m 0,4.394 h 1.612 q 0.819,0 1.287,-0.429 0.481,-0.442 0.481,-1.196 0,-0.78 -0.481,-1.261 -0.468,-0.494 -1.287,-0.494 h -1.612 z m 11.747,1.183 q -1.274,0 -2.015,-0.741 -0.741,-0.741 -0.741,-2.119 v -4.03 q 0,-1.378 0.741,-2.119 0.741,-0.741 2.015,-0.741 1.274,0 2.015,0.741 0.741,0.741 0.741,2.106 v 4.043 q 0,1.378 -0.741,2.119 -0.741,0.741 -2.015,0.741 z m 0,-1.053 q 0.767,0 1.17,-0.429 0.416,-0.442 0.416,-1.248 v -4.29 q 0,-0.806 -0.416,-1.235 -0.403,-0.442 -1.17,-0.442 -0.754,0 -1.17,0.442 -0.416,0.429 -0.416,1.235 v 4.29 q 0,0.806 0.416,1.248 0.416,0.429 1.17,0.429 z m 10.20001,1.053 q -1.326,0 -2.028,-0.728 -0.702,-0.741 -0.702,-2.002 v -6.89 h 1.17 v 6.89 q 0,0.78 0.377,1.235 0.39,0.455 1.183,0.455 0.78,0 1.17,-0.455 0.39,-0.455 0.39,-1.235 v -6.89 h 1.17 v 6.89 q 0,1.274 -0.702,2.002 -0.689,0.728 -2.028,0.728 z m 7.46999,-0.13 v -9.49 h 1.56 l 2.899,8.125 q -0.026,-0.325 -0.065,-0.793 -0.026,-0.481 -0.052,-1.001 -0.013,-0.533 -0.013,-1.001 v -5.33 h 1.131 V 142 h -1.56 l -2.886,-8.125 q 0.026,0.312 0.052,0.793 0.026,0.468 0.039,1.001 0.026,0.52 0.026,1.001 V 142 Z m 10.22602,0 v -9.49 h 2.457 q 0.923,0 1.586,0.351 0.676,0.351 1.04,0.988 0.377,0.637 0.377,1.508 v 3.783 q 0,0.871 -0.377,1.521 -0.364,0.637 -1.04,0.988 -0.663,0.351 -1.586,0.351 z m 1.17,-1.04 h 1.287 q 0.858,0 1.339,-0.481 0.494,-0.481 0.494,-1.339 v -3.783 q 0,-0.845 -0.494,-1.326 -0.481,-0.481 -1.339,-0.481 h -1.287 z m 21.98601,1.17 q -1.378,0 -2.197,-0.728 -0.819,-0.728 -0.819,-2.002 h 1.17 q 0,0.793 0.507,1.248 0.507,0.442 1.339,0.442 0.806,0 1.287,-0.468 0.481,-0.468 0.481,-1.222 0,-0.572 -0.312,-0.988 -0.299,-0.429 -0.871,-0.585 l -1.443,-0.403 q -0.897,-0.26 -1.417,-0.923 -0.507,-0.676 -0.507,-1.586 0,-0.754 0.338,-1.326 0.338,-0.572 0.949,-0.884 0.611,-0.325 1.404,-0.325 0.806,0 1.417,0.325 0.624,0.312 0.975,0.884 0.351,0.559 0.351,1.3 h -1.17 q 0,-0.65 -0.442,-1.053 -0.442,-0.416 -1.131,-0.416 -0.689,0 -1.118,0.416 -0.429,0.403 -0.429,1.053 0,0.52 0.273,0.897 0.286,0.364 0.793,0.507 l 1.482,0.416 q 0.949,0.26 1.469,0.988 0.533,0.715 0.533,1.703 0,1.248 -0.793,1.989 -0.793,0.741 -2.119,0.741 z M 258.9651,142 v -1.066 h 1.937 v -7.358 h -1.937 v -1.066 h 5.07 v 1.066 h -1.937 v 7.358 h 1.937 V 142 Z m 12.78699,0.13 q -1.3,0 -2.054,-0.728 -0.754,-0.728 -0.754,-2.002 v -4.29 q 0,-1.274 0.754,-2.002 0.754,-0.728 2.054,-0.728 1.274,0 2.028,0.741 0.754,0.728 0.754,1.989 h -1.17 q 0,-0.806 -0.429,-1.235 -0.416,-0.442 -1.183,-0.442 -0.767,0 -1.209,0.429 -0.429,0.429 -0.429,1.235 v 4.303 q 0,0.806 0.429,1.248 0.442,0.442 1.209,0.442 0.767,0 1.183,-0.442 0.429,-0.442 0.429,-1.248 v -1.3 h -1.924 v -1.066 h 3.094 v 2.366 q 0,1.261 -0.754,2.002 -0.754,0.728 -2.028,0.728 z m 7.41802,-0.13 v -9.49 h 1.56 l 2.899,8.125 q -0.026,-0.325 -0.065,-0.793 -0.026,-0.481 -0.052,-1.001 -0.013,-0.533 -0.013,-1.001 v -5.33 h 1.131 V 142 h -1.56 l -2.886,-8.125 q 0.026,0.312 0.052,0.793 0.026,0.468 0.039,1.001 0.026,0.52 0.026,1.001 V 142 Z m 10.39499,0 v -1.066 h 1.937 v -7.358 h -1.937 v -1.066 h 5.07 v 1.066 h -1.937 v 7.358 h 1.937 V 142 Z m 10.00502,0 v -9.49 h 1.56 l 2.899,8.125 q -0.026,-0.325 -0.065,-0.793 -0.026,-0.481 -0.052,-1.001 -0.013,-0.533 -0.013,-1.001 v -5.33 h 1.131 V 142 h -1.56 l -2.886,-8.125 q 0.026,0.312 0.052,0.793 0.026,0.468 0.039,1.001 0.026,0.52 0.026,1.001 V 142 Z m 12.98199,0.13 q -1.3,0 -2.054,-0.728 -0.754,-0.728 -0.754,-2.002 v -4.29 q 0,-1.274 0.754,-2.002 0.754,-0.728 2.054,-0.728 1.274,0 2.028,0.741 0.754,0.728 0.754,1.989 h -1.17 q 0,-0.806 -0.429,-1.235 -0.416,-0.442 -1.183,-0.442 -0.767,0 -1.209,0.429 -0.429,0.429 -0.429,1.235 v 4.303 q 0,0.806 0.429,1.248 0.442,0.442 1.209,0.442 0.767,0 1.183,-0.442 0.429,-0.442 0.429,-1.248 v -1.3 h -1.924 v -1.066 h 3.094 v 2.366 q 0,1.261 -0.754,2.002 -0.754,0.728 -2.028,0.728 z m 20.34801,-3.51 q -0.481,0 -0.78,-0.286 -0.286,-0.286 -0.286,-0.741 0,-0.481 0.286,-0.78 0.299,-0.299 0.78,-0.299 0.481,0 0.767,0.299 0.299,0.299 0.299,0.78 0,0.455 -0.299,0.741 -0.286,0.286 -0.767,0.286 z m 20.45203,3.51 q -1.378,0 -2.197,-0.728 -0.819,-0.728 -0.819,-2.002 h 1.17 q 0,0.793 0.507,1.248 0.507,0.442 1.339,0.442 0.806,0 1.287,-0.468 0.481,-0.468 0.481,-1.222 0,-0.572 -0.312,-0.988 -0.299,-0.429 -0.871,-0.585 l -1.443,-0.403 q -0.897,-0.26 -1.417,-0.923 -0.507,-0.676 -0.507,-1.586 0,-0.754 0.338,-1.326 0.338,-0.572 0.949,-0.884 0.611,-0.325 1.404,-0.325 0.806,0 1.417,0.325 0.624,0.312 0.975,0.884 0.351,0.559 0.351,1.3 h -1.17 q 0,-0.65 -0.442,-1.053 -0.442,-0.416 -1.131,-0.416 -0.689,0 -1.118,0.416 -0.429,0.403 -0.429,1.053 0,0.52 0.273,0.897 0.286,0.364 0.793,0.507 l 1.482,0.416 q 0.949,0.26 1.469,0.988 0.533,0.715 0.533,1.703 0,1.248 -0.793,1.989 -0.793,0.741 -2.119,0.741 z m 9.56298,-0.13 v -8.424 h -2.6 v -1.066 h 6.37 v 1.066 h -2.6 V 142 Z m 7.53501,0 2.47,-9.49 h 1.573 l 2.457,9.49 h -1.183 l -0.624,-2.522 h -2.873 l -0.624,2.522 z m 2.054,-3.51 h 2.392 l -0.728,-2.925 q -0.208,-0.832 -0.325,-1.391 -0.117,-0.559 -0.143,-0.728 -0.026,0.169 -0.143,0.728 -0.117,0.559 -0.325,1.378 z m 10.81101,3.51 v -8.424 h -2.6 v -1.066 h 6.37 v 1.066 h -2.6 V 142 Z m 10.78501,0.13 q -1.326,0 -2.028,-0.728 -0.702,-0.741 -0.702,-2.002 v -6.89 h 1.17 v 6.89 q 0,0.78 0.377,1.235 0.39,0.455 1.183,0.455 0.78,0 1.17,-0.455 0.39,-0.455 0.39,-1.235 v -6.89 h 1.17 v 6.89 q 0,1.274 -0.702,2.002 -0.689,0.728 -2.028,0.728 z m 10.25199,0 q -1.378,0 -2.197,-0.728 -0.819,-0.728 -0.819,-2.002 h 1.17 q 0,0.793 0.507,1.248 0.507,0.442 1.339,0.442 0.806,0 1.287,-0.468 0.481,-0.468 0.481,-1.222 0,-0.572 -0.312,-0.988 -0.299,-0.429 -0.871,-0.585 l -1.443,-0.403 q -0.897,-0.26 -1.417,-0.923 -0.507,-0.676 -0.507,-1.586 0,-0.754 0.338,-1.326 0.338,-0.572 0.949,-0.884 0.611,-0.325 1.404,-0.325 0.806,0 1.417,0.325 0.624,0.312 0.975,0.884 0.351,0.559 0.351,1.3 h -1.17 q 0,-0.65 -0.442,-1.053 -0.442,-0.416 -1.131,-0.416 -0.689,0 -1.118,0.416 -0.429,0.403 -0.429,1.053 0,0.52 0.273,0.897 0.286,0.364 0.793,0.507 l 1.482,0.416 q 0.949,0.26 1.469,0.988 0.533,0.715 0.533,1.703 0,1.248 -0.793,1.989 -0.793,0.741 -2.119,0.741 z M 421.99617,142 v -9.49 h 1.17 v 4.082 h 1.404 l 2.106,-4.082 h 1.274 l -2.353,4.576 2.483,4.914 h -1.339 l -2.21,-4.381 h -1.365 V 142 Z m 10.30401,0 v -9.49 h 5.46 v 1.066 h -4.303 v 2.938 h 3.848 v 1.04 h -3.848 v 3.38 h 4.303 V 142 Z m 12.21502,0 v -3.549 l -2.86,-5.941 h 1.248 l 1.846,3.9 q 0.156,0.325 0.247,0.559 0.091,0.221 0.117,0.325 0.026,-0.104 0.117,-0.325 0.104,-0.234 0.26,-0.559 l 1.846,-3.9 h 1.209 l -2.86,5.941 V 142 Z m 10.88898,0.13 q -1.3,0 -2.054,-0.728 -0.754,-0.728 -0.754,-2.002 v -4.29 q 0,-1.274 0.754,-2.002 0.754,-0.728 2.054,-0.728 1.274,0 2.028,0.741 0.754,0.728 0.754,1.989 h -1.17 q 0,-0.806 -0.429,-1.235 -0.416,-0.442 -1.183,-0.442 -0.767,0 -1.209,0.442 -0.429,0.429 -0.429,1.235 v 4.29 q 0,0.806 0.429,1.248 0.442,0.429 1.209,0.429 0.767,0 1.183,-0.429 0.429,-0.442 0.429,-1.248 h 1.17 q 0,1.261 -0.754,2.002 -0.754,0.728 -2.028,0.728 z m 6.84601,-0.13 2.47,-9.49 h 1.573 l 2.457,9.49 h -1.183 l -0.624,-2.522 h -2.873 l -0.624,2.522 z m 2.054,-3.51 h 2.392 l -0.728,-2.925 q -0.208,-0.832 -0.325,-1.391 -0.117,-0.559 -0.143,-0.728 -0.026,0.169 -0.143,0.728 -0.117,0.559 -0.325,1.378 z m 8.70501,3.51 v -9.49 h 2.925 q 0.845,0 1.482,0.351 0.637,0.338 0.988,0.949 0.351,0.611 0.351,1.43 0,0.962 -0.494,1.651 -0.494,0.689 -1.313,0.962 l 1.937,4.147 h -1.287 l -1.859,-4.03 h -1.573 V 142 Z m 1.157,-5.083 h 1.768 q 0.728,0 1.17,-0.455 0.442,-0.468 0.442,-1.222 0,-0.767 -0.442,-1.222 -0.442,-0.455 -1.17,-0.455 h -1.768 z m 9.03001,5.083 v -9.49 h 2.457 q 0.923,0 1.586,0.351 0.676,0.351 1.04,0.988 0.377,0.637 0.377,1.508 v 3.783 q 0,0.871 -0.377,1.521 -0.364,0.637 -1.04,0.988 -0.663,0.351 -1.586,0.351 z m 1.17,-1.04 h 1.287 q 0.858,0 1.339,-0.481 0.494,-0.481 0.494,-1.339 v -3.783 q 0,-0.845 -0.494,-1.326 -0.481,-0.481 -1.339,-0.481 h -1.287 z m 11.78599,1.17 q -1.378,0 -2.197,-0.728 -0.819,-0.728 -0.819,-2.002 h 1.17 q 0,0.793 0.507,1.248 0.507,0.442 1.339,0.442 0.806,0 1.287,-0.468 0.481,-0.468 0.481,-1.222 0,-0.572 -0.312,-0.988 -0.299,-0.429 -0.871,-0.585 l -1.443,-0.403 q -0.897,-0.26 -1.417,-0.923 -0.507,-0.676 -0.507,-1.586 0,-0.754 0.338,-1.326 0.338,-0.572 0.949,-0.884 0.611,-0.325 1.404,-0.325 0.806,0 1.417,0.325 0.624,0.312 0.975,0.884 0.351,0.559 0.351,1.3 h -1.17 q 0,-0.65 -0.442,-1.053 -0.442,-0.416 -1.131,-0.416 -0.689,0 -1.118,0.416 -0.429,0.403 -0.429,1.053 0,0.52 0.273,0.897 0.286,0.364 0.793,0.507 l 1.482,0.416 q 0.949,0.26 1.469,0.988 0.533,0.715 0.533,1.703 0,1.248 -0.793,1.989 -0.793,0.741 -2.119,0.741 z"
     id="text6"
     style="font-size:13px;letter-spacing:2.4;fill:#a8d68a"
     aria-label="⊟ HARDWARE-BOUND SIGNING · STATUS KEYCARDS" />
  <path
     d="m 78.224,200 v -35.04 h 4.752 v 14.88 h 4.896 l 7.488,-14.88 h 5.184 L 92.048,181.808 100.976,200 H 95.6 l -7.824,-15.984 h -4.8 V 200 Z m 37.57602,0.48 q -4.752,0 -7.68,-2.832 -2.88,-2.832 -2.88,-7.728 v -6.24 q 0,-4.896 2.88,-7.728 2.928,-2.832 7.68,-2.832 3.168,0 5.52,1.296 2.4,1.248 3.696,3.552 1.344,2.256 1.344,5.28 V 188 h -16.464 v 2.304 q 0,2.88 1.584,4.512 1.584,1.632 4.32,1.632 2.304,0 3.792,-0.864 1.488,-0.864 1.776,-2.4 h 4.752 q -0.48,3.36 -3.312,5.328 -2.832,1.968 -7.008,1.968 z m -5.904,-17.232 v 1.248 h 11.808 v -1.248 q 0,-3.024 -1.536,-4.656 -1.536,-1.632 -4.368,-1.632 -2.832,0 -4.368,1.632 -1.536,1.632 -1.536,4.656 z m 27.30402,25.392 3.84,-10.224 -9.84,-24.816 h 5.04 l 5.952,15.6 q 0.384,1.008 0.768,2.16 0.384,1.152 0.528,2.016 0.144,-0.864 0.48,-2.016 0.336,-1.152 0.72,-2.16 l 5.52,-15.6 h 5.04 l -13.104,35.04 z m 32.34402,-8.256 q -4.512,0 -7.008,-2.016 -2.496,-2.016 -2.496,-5.664 h 4.704 q 0,1.728 1.248,2.736 1.296,0.96 3.552,0.96 h 2.112 q 2.352,0 3.6,-1.008 1.296,-1.008 1.296,-2.832 0,-3.216 -3.168,-3.6 l -7.104,-1.008 q -2.832,-0.432 -4.368,-2.304 -1.536,-1.92 -1.536,-4.944 0,-3.552 2.4,-5.52 2.4,-1.968 6.72,-1.968 h 2.112 q 4.032,0 6.528,1.92 2.496,1.92 2.64,5.088 h -4.8 q -0.096,-1.344 -1.248,-2.208 -1.152,-0.912 -3.12,-0.912 h -2.112 q -2.16,0 -3.36,0.96 -1.152,0.96 -1.152,2.592 0,2.64 2.64,2.976 l 6.672,0.96 q 6.864,0.912 6.864,7.968 0,3.744 -2.496,5.808 -2.448,2.016 -7.008,2.016 z M 215.22409,200 v -26.4 h 4.704 v 5.04 h 0.048 q 0.336,-2.592 2.16,-4.032 1.872,-1.488 4.896,-1.488 3.936,0 6.288,2.496 2.352,2.496 2.352,6.72 V 200 h -4.752 v -16.896 q 0,-2.88 -1.44,-4.416 -1.44,-1.536 -3.936,-1.536 -2.592,0 -4.08,1.632 -1.488,1.584 -1.488,4.464 V 200 Z m 37.57603,0.48 q -4.752,0 -7.68,-2.832 -2.88,-2.832 -2.88,-7.728 v -6.24 q 0,-4.896 2.88,-7.728 2.928,-2.832 7.68,-2.832 3.168,0 5.52,1.296 2.4,1.248 3.696,3.552 1.344,2.256 1.344,5.28 V 188 h -16.464 v 2.304 q 0,2.88 1.584,4.512 1.584,1.632 4.32,1.632 2.304,0 3.792,-0.864 1.488,-0.864 1.776,-2.4 h 4.752 q -0.48,3.36 -3.312,5.328 -2.832,1.968 -7.008,1.968 z m -5.904,-17.232 v 1.248 h 11.808 v -1.248 q 0,-3.024 -1.536,-4.656 -1.536,-1.632 -4.368,-1.632 -2.832,0 -4.368,1.632 -1.536,1.632 -1.536,4.656 z m 30.23201,16.752 -8.928,-26.4 h 5.04 l 5.616,17.328 q 0.48,1.536 0.864,3.024 0.384,1.44 0.576,2.304 0.192,-0.864 0.528,-2.304 0.336,-1.488 0.816,-3.024 l 5.568,-17.328 h 5.04 l -8.976,26.4 z m 30.47202,0.48 q -4.752,0 -7.68,-2.832 -2.88,-2.832 -2.88,-7.728 v -6.24 q 0,-4.896 2.88,-7.728 2.928,-2.832 7.68,-2.832 3.168,0 5.52,1.296 2.4,1.248 3.696,3.552 1.344,2.256 1.344,5.28 V 188 h -16.464 v 2.304 q 0,2.88 1.584,4.512 1.584,1.632 4.32,1.632 2.304,0 3.792,-0.864 1.488,-0.864 1.776,-2.4 h 4.752 q -0.48,3.36 -3.312,5.328 -2.832,1.968 -7.008,1.968 z m -5.904,-17.232 v 1.248 h 11.808 v -1.248 q 0,-3.024 -1.536,-4.656 -1.536,-1.632 -4.368,-1.632 -2.832,0 -4.368,1.632 -1.536,1.632 -1.536,4.656 z M 325.78416,200 v -26.4 h 4.704 v 5.088 h 0.048 q 0.384,-2.592 2.208,-4.08 1.872,-1.488 4.944,-1.488 4.08,0 6.336,2.544 2.256,2.496 2.256,7.056 v 2.304 h -4.752 v -2.256 q 0,-5.52 -5.424,-5.52 -2.736,0 -4.176,1.584 -1.392,1.584 -1.392,4.512 V 200 Z m 67.95205,0 q -3.6,0 -5.76,-2.112 -2.16,-2.112 -2.16,-5.616 V 169.28 h -9.024 v -4.32 h 13.776 v 27.264 q 0,1.584 0.864,2.544 0.912,0.912 2.448,0.912 h 8.016 V 200 Z m 23.46402,0.48 q -4.752,0 -7.68,-2.832 -2.88,-2.832 -2.88,-7.728 v -6.24 q 0,-4.896 2.88,-7.728 2.928,-2.832 7.68,-2.832 3.168,0 5.52,1.296 2.4,1.248 3.696,3.552 1.344,2.256 1.344,5.28 V 188 h -16.464 v 2.304 q 0,2.88 1.584,4.512 1.584,1.632 4.32,1.632 2.304,0 3.792,-0.864 1.488,-0.864 1.776,-2.4 h 4.752 q -0.48,3.36 -3.312,5.328 -2.832,1.968 -7.008,1.968 z m -5.904,-17.232 v 1.248 h 11.808 v -1.248 q 0,-3.024 -1.536,-4.656 -1.536,-1.632 -4.368,-1.632 -2.832,0 -4.368,1.632 -1.536,1.632 -1.536,4.656 z m 30.856,17.232 q -4.08,0 -6.48,-2.256 -2.352,-2.304 -2.352,-6 0,-3.696 2.448,-5.952 2.496,-2.256 6.528,-2.256 h 7.728 V 182 q 0,-4.848 -5.376,-4.848 -2.4,0 -3.888,0.912 -1.44,0.864 -1.536,2.448 h -4.704 q 0.24,-3.216 2.928,-5.28 2.688,-2.112 7.2,-2.112 4.848,0 7.488,2.304 2.64,2.304 2.64,6.48 V 200 h -4.656 v -4.848 h -0.096 q -0.336,2.448 -2.448,3.888 -2.064,1.44 -5.424,1.44 z m 1.248,-3.984 q 3.024,0 4.8,-1.44 1.824,-1.488 1.824,-4.032 v -3.504 h -7.296 q -2.064,0 -3.36,1.248 -1.248,1.2 -1.248,3.216 0,2.064 1.392,3.312 1.392,1.2 3.888,1.2 z m 25.52802,3.504 -8.928,-26.4 h 5.04 l 5.616,17.328 q 0.48,1.536 0.864,3.024 0.384,1.44 0.576,2.304 0.192,-0.864 0.528,-2.304 0.336,-1.488 0.816,-3.024 l 5.568,-17.328 h 5.04 l -8.976,26.4 z m 30.47202,0.48 q -4.752,0 -7.68,-2.832 -2.88,-2.832 -2.88,-7.728 v -6.24 q 0,-4.896 2.88,-7.728 2.928,-2.832 7.68,-2.832 3.168,0 5.52,1.296 2.4,1.248 3.696,3.552 1.344,2.256 1.344,5.28 V 188 h -16.464 v 2.304 q 0,2.88 1.584,4.512 1.584,1.632 4.32,1.632 2.304,0 3.792,-0.864 1.488,-0.864 1.776,-2.4 h 4.752 q -0.48,3.36 -3.312,5.328 -2.832,1.968 -7.008,1.968 z m -5.904,-17.232 v 1.248 h 11.808 v -1.248 q 0,-3.024 -1.536,-4.656 -1.536,-1.632 -4.368,-1.632 -2.832,0 -4.368,1.632 -1.536,1.632 -1.536,4.656 z M 556.84032,200 q -3.408,0 -5.424,-1.968 -1.968,-1.968 -1.968,-5.232 v -14.88 h -7.536 v -4.32 h 7.536 v -7.44 h 4.752 v 7.44 h 10.704 v 4.32 h -10.704 v 14.832 q 0,1.296 0.72,2.112 0.768,0.816 2.016,0.816 h 7.728 V 200 Z m 14.584,0 v -35.04 h 4.752 v 8.64 l -0.048,5.04 h 0.048 q 0.336,-2.592 2.16,-4.032 1.872,-1.488 4.896,-1.488 3.936,0 6.288,2.496 2.352,2.496 2.352,6.72 V 200 h -4.752 v -16.944 q 0,-2.832 -1.44,-4.368 -1.44,-1.536 -3.936,-1.536 -2.592,0 -4.08,1.632 -1.488,1.584 -1.488,4.464 V 200 Z m 37.57602,0.48 q -4.752,0 -7.68,-2.832 -2.88,-2.832 -2.88,-7.728 v -6.24 q 0,-4.896 2.88,-7.728 2.928,-2.832 7.68,-2.832 3.168,0 5.52,1.296 2.4,1.248 3.696,3.552 1.344,2.256 1.344,5.28 V 188 h -16.464 v 2.304 q 0,2.88 1.584,4.512 1.584,1.632 4.32,1.632 2.304,0 3.792,-0.864 1.488,-0.864 1.776,-2.4 h 4.752 q -0.48,3.36 -3.312,5.328 -2.832,1.968 -7.008,1.968 z m -5.904,-17.232 v 1.248 h 11.808 v -1.248 q 0,-3.024 -1.536,-4.656 -1.536,-1.632 -4.368,-1.632 -2.832,0 -4.368,1.632 -1.536,1.632 -1.536,4.656 z m 61.08805,17.232 q -4.848,0 -7.776,-2.688 -2.928,-2.736 -2.928,-7.488 v -7.056 q 0,-4.704 2.928,-7.392 2.928,-2.736 7.776,-2.736 4.656,0 7.488,2.496 2.88,2.448 3.024,6.72 h -4.704 q -0.144,-2.4 -1.728,-3.696 -1.536,-1.344 -4.08,-1.344 -2.736,0 -4.368,1.584 -1.584,1.536 -1.584,4.368 v 7.056 q 0,2.88 1.584,4.416 1.632,1.536 4.368,1.536 2.592,0 4.128,-1.296 1.536,-1.296 1.68,-3.696 h 4.704 q -0.144,4.272 -3.024,6.768 -2.832,2.448 -7.488,2.448 z m 24.56803,0 q -4.08,0 -6.48,-2.256 -2.352,-2.304 -2.352,-6 0,-3.696 2.448,-5.952 2.496,-2.256 6.528,-2.256 h 7.728 V 182 q 0,-4.848 -5.376,-4.848 -2.4,0 -3.888,0.912 -1.44,0.864 -1.536,2.448 h -4.704 q 0.24,-3.216 2.928,-5.28 2.688,-2.112 7.2,-2.112 4.848,0 7.488,2.304 2.64,2.304 2.64,6.48 V 200 h -4.656 v -4.848 h -0.096 q -0.336,2.448 -2.448,3.888 -2.064,1.44 -5.424,1.44 z m 1.248,-3.984 q 3.024,0 4.8,-1.44 1.824,-1.488 1.824,-4.032 v -3.504 h -7.296 q -2.064,0 -3.36,1.248 -1.248,1.2 -1.248,3.216 0,2.064 1.392,3.312 1.392,1.2 3.888,1.2 z M 709.38444,200 v -26.4 h 4.704 v 5.088 h 0.048 q 0.384,-2.592 2.208,-4.08 1.872,-1.488 4.944,-1.488 4.08,0 6.336,2.544 2.256,2.496 2.256,7.056 v 2.304 h -4.752 v -2.256 q 0,-5.52 -5.424,-5.52 -2.736,0 -4.176,1.584 -1.392,1.584 -1.392,4.512 V 200 Z m 34.88802,0.48 q -3.984,0 -6.336,-2.64 -2.352,-2.688 -2.352,-7.248 v -7.584 q 0,-4.56 2.352,-7.2 2.352,-2.688 6.336,-2.688 2.928,0 4.848,1.488 1.968,1.488 2.4,4.08 v 0 l -0.096,-6.144 v -7.584 h 4.752 V 200 h -4.704 v -5.136 0 q -0.432,2.64 -2.352,4.128 -1.92,1.488 -4.848,1.488 z m 1.632,-4.128 q 2.544,0 4.032,-1.584 1.488,-1.584 1.488,-4.464 v -7.008 q 0,-2.88 -1.488,-4.464 -1.488,-1.584 -4.032,-1.584 -2.64,0 -4.128,1.392 -1.44,1.344 -1.44,4.416 v 7.488 q 0,3.072 1.44,4.464 1.488,1.344 4.128,1.344 z m 27.49603,4.128 q -1.824,0 -2.976,-1.104 -1.104,-1.104 -1.104,-2.832 0,-1.824 1.104,-2.976 1.152,-1.152 2.976,-1.152 1.824,0 2.928,1.152 1.152,1.152 1.152,2.976 0,1.728 -1.152,2.832 -1.104,1.104 -2.928,1.104 z"
     id="text7"
     style="font-weight:500;font-size:48px;letter-spacing:-1.4;fill:#d6d6cf"
     aria-label="Keys never leave the card." />
  <path
     d="m 86.96,246.48 q -5.136,0 -8.064,-2.832 -2.928,-2.88 -2.928,-7.824 h 4.752 q 0,3.072 1.632,4.752 1.68,1.68 4.608,1.68 2.928,0 4.56,-1.68 1.68,-1.68 1.68,-4.704 V 210.96 h 4.752 v 24.912 q 0,4.896 -2.976,7.776 -2.928,2.832 -8.016,2.832 z m 28.79202,0 q -4.656,0 -7.44,-2.736 -2.784,-2.736 -2.784,-7.44 V 219.6 h 4.752 v 16.704 q 0,2.784 1.44,4.416 1.488,1.584 4.032,1.584 2.592,0 4.08,-1.584 1.488,-1.632 1.488,-4.416 V 219.6 h 4.752 v 16.704 q 0,4.704 -2.832,7.44 -2.784,2.736 -7.488,2.736 z m 26.39202,-0.096 q -4.512,0 -7.008,-2.016 -2.496,-2.016 -2.496,-5.664 h 4.704 q 0,1.728 1.248,2.736 1.296,0.96 3.552,0.96 h 2.112 q 2.352,0 3.6,-1.008 1.296,-1.008 1.296,-2.832 0,-3.216 -3.168,-3.6 l -7.104,-1.008 q -2.832,-0.432 -4.368,-2.304 -1.536,-1.92 -1.536,-4.944 0,-3.552 2.4,-5.52 2.4,-1.968 6.72,-1.968 h 2.112 q 4.032,0 6.528,1.92 2.496,1.92 2.64,5.088 h -4.8 q -0.096,-1.344 -1.248,-2.208 -1.152,-0.912 -3.12,-0.912 h -2.112 q -2.16,0 -3.36,0.96 -1.152,0.96 -1.152,2.592 0,2.64 2.64,2.976 l 6.672,0.96 q 6.864,0.912 6.864,7.968 0,3.744 -2.496,5.808 -2.448,2.016 -7.008,2.016 z M 173.24006,246 q -3.408,0 -5.424,-1.968 -1.968,-1.968 -1.968,-5.232 v -14.88 h -7.536 v -4.32 h 7.536 v -7.44 h 4.752 v 7.44 h 10.704 v 4.32 h -10.704 v 14.832 q 0,1.296 0.72,2.112 0.768,0.816 2.016,0.816 h 7.728 V 246 Z m 51.10403,0.384 q -4.512,0 -7.008,-2.016 -2.496,-2.016 -2.496,-5.664 h 4.704 q 0,1.728 1.248,2.736 1.296,0.96 3.552,0.96 h 2.112 q 2.352,0 3.6,-1.008 1.296,-1.008 1.296,-2.832 0,-3.216 -3.168,-3.6 l -7.104,-1.008 q -2.832,-0.432 -4.368,-2.304 -1.536,-1.92 -1.536,-4.944 0,-3.552 2.4,-5.52 2.4,-1.968 6.72,-1.968 h 2.112 q 4.032,0 6.528,1.92 2.496,1.92 2.64,5.088 h -4.8 q -0.096,-1.344 -1.248,-2.208 -1.152,-0.912 -3.12,-0.912 h -2.112 q -2.16,0 -3.36,0.96 -1.152,0.96 -1.152,2.592 0,2.64 2.64,2.976 l 6.672,0.96 q 6.864,0.912 6.864,7.968 0,3.744 -2.496,5.808 -2.448,2.016 -7.008,2.016 z M 242.38412,246 v -4.32 h 9.264 v -17.76 h -8.304 v -4.32 h 13.056 v 22.08 h 8.688 V 246 Z m 11.184,-31.056 q -1.632,0 -2.592,-0.816 -0.96,-0.864 -0.96,-2.304 0,-1.488 0.96,-2.352 0.96,-0.864 2.592,-0.864 1.632,0 2.592,0.864 0.96,0.864 0.96,2.352 0,1.44 -0.96,2.304 -0.96,0.816 -2.592,0.816 z m 19.86401,39.696 v -4.224 h 7.44 q 2.16,0 3.456,-1.248 1.296,-1.2 1.296,-3.312 v -2.208 l 0.096,-4.56 h -0.048 q -0.48,2.448 -2.352,3.792 -1.824,1.344 -4.704,1.344 -4.08,0 -6.432,-2.592 -2.352,-2.64 -2.352,-7.2 v -5.424 q 0,-4.56 2.352,-7.2 2.352,-2.688 6.432,-2.688 2.784,0 4.608,1.344 1.872,1.344 2.4,3.696 h 0.048 v -4.56 h 4.656 v 26.304 q 0,4.032 -2.544,6.384 -2.544,2.352 -6.912,2.352 z m 6.672,-14.4 q 2.544,0 4.032,-1.584 1.488,-1.584 1.488,-4.464 v -4.944 q 0,-2.832 -1.488,-4.416 -1.488,-1.584 -4.032,-1.584 -2.64,0 -4.08,1.536 -1.44,1.488 -1.44,4.08 v 5.76 q 0,2.592 1.44,4.128 1.44,1.488 4.08,1.488 z m 17.32002,5.76 v -26.4 h 4.704 v 5.04 h 0.048 q 0.336,-2.592 2.16,-4.032 1.872,-1.488 4.896,-1.488 3.936,0 6.288,2.496 2.352,2.496 2.352,6.72 V 246 h -4.752 v -16.896 q 0,-2.88 -1.44,-4.416 -1.44,-1.536 -3.936,-1.536 -2.592,0 -4.08,1.632 -1.488,1.584 -1.488,4.464 V 246 Z m 37.57601,0.48 q -1.824,0 -2.976,-1.104 -1.104,-1.104 -1.104,-2.832 0,-1.824 1.104,-2.976 1.152,-1.152 2.976,-1.152 1.824,0 2.928,1.152 1.152,1.152 1.152,2.976 0,1.728 -1.152,2.832 -1.104,1.104 -2.928,1.104 z"
     id="text8"
     style="font-weight:500;font-size:48px;letter-spacing:-1.4;fill:#a8d68a"
     aria-label="Just sign." />
  <path
     d="m 77.696,292.12 q -1.2,0 -1.92,-0.672 -0.72,-0.672 -0.72,-1.848 v -1.8 q 0,-1.176 0.72,-1.848 0.72,-0.672 1.92,-0.672 1.14,0 1.836,0.612 0.708,0.612 0.744,1.668 h -1.08 q -0.036,-0.636 -0.432,-0.972 -0.396,-0.348 -1.068,-0.348 -0.708,0 -1.14,0.408 -0.42,0.396 -0.42,1.14 v 1.812 q 0,0.744 0.42,1.152 0.432,0.408 1.14,0.408 0.672,0 1.068,-0.348 0.396,-0.348 0.432,-0.972 h 1.08 q -0.036,1.056 -0.744,1.668 -0.696,0.612 -1.836,0.612 z m 7.104005,-0.024 q -1.188,0 -1.896,-0.696 -0.696,-0.696 -0.696,-1.944 v -1.512 q 0,-1.26 0.696,-1.944 0.696,-0.696 1.896,-0.696 1.2,0 1.896,0.696 0.696,0.684 0.696,1.944 v 1.512 q 0,1.248 -0.708,1.944 -0.696,0.696 -1.884,0.696 z m 0,-0.96 q 0.708,0 1.104,-0.396 0.408,-0.396 0.408,-1.164 v -1.752 q 0,-0.768 -0.408,-1.164 -0.396,-0.396 -1.104,-0.396 -0.696,0 -1.104,0.396 -0.408,0.396 -0.408,1.164 v 1.752 q 0,0.768 0.408,1.164 0.408,0.396 1.104,0.396 z M 89.744009,292 v -6.6 h 1.08 v 1.26 h 0.024 q 0.084,-0.636 0.54,-1.008 0.456,-0.372 1.224,-0.372 1.032,0 1.584,0.624 0.564,0.612 0.564,1.752 v 0.564 h -1.08 v -0.564 q 0,-1.44 -1.404,-1.44 -0.708,0 -1.08,0.408 -0.372,0.408 -0.372,1.176 v 4.2 z m 9.456005,0.12 q -1.164,0 -1.884,-0.696 -0.708,-0.708 -0.708,-1.944 v -1.56 q 0,-1.236 0.708,-1.932 0.72,-0.708 1.884,-0.708 0.78,0 1.355996,0.312 0.588,0.312 0.912,0.876 0.324,0.564 0.324,1.332 v 1.176 h -4.127996 v 0.624 q 0,0.732 0.42,1.164 0.42,0.42 1.116,0.42 0.6,0 0.983996,-0.228 0.396,-0.24 0.48,-0.636 h 1.08 q -0.108,0.828 -0.804,1.32 -0.696,0.48 -1.739996,0.48 z m -1.536,-3.984 h 3.071996 V 287.8 q 0,-0.78 -0.408,-1.2 -0.395996,-0.432 -1.127996,-0.432 -0.732,0 -1.14,0.432 -0.396,0.42 -0.396,1.2 z m 15.984006,3.984 q -1.272,0 -2.028,-0.672 -0.756,-0.672 -0.756,-1.848 h 1.08 q 0,0.732 0.468,1.152 0.468,0.408 1.236,0.408 0.744,0 1.188,-0.432 0.444,-0.432 0.444,-1.128 0,-0.528 -0.288,-0.912 -0.276,-0.396 -0.804,-0.54 l -1.332,-0.372 q -0.828,-0.24 -1.308,-0.852 -0.468,-0.624 -0.468,-1.464 0,-0.696 0.312,-1.224 0.312,-0.528 0.876,-0.816 0.564,-0.3 1.296,-0.3 0.744,0 1.308,0.3 0.576,0.288 0.9,0.816 0.324,0.516 0.324,1.2 h -1.08 q 0,-0.6 -0.408,-0.972 -0.408,-0.384 -1.044,-0.384 -0.636,0 -1.032,0.384 -0.396,0.372 -0.396,0.972 0,0.48 0.252,0.828 0.264,0.336 0.732,0.468 l 1.368,0.384 q 0.876,0.24 1.356,0.912 0.492,0.66 0.492,1.572 0,1.152 -0.732,1.836 -0.732,0.684 -1.956,0.684 z m 4.65601,-0.12 v -8.76 h 2.268 q 0.852,0 1.464,0.324 0.624,0.324 0.96,0.912 0.348,0.588 0.348,1.392 v 3.492 q 0,0.804 -0.348,1.404 -0.336,0.588 -0.96,0.912 -0.612,0.324 -1.464,0.324 z m 1.08,-0.96 h 1.188 q 0.792,0 1.236,-0.444 0.456,-0.444 0.456,-1.236 v -3.492 q 0,-0.78 -0.456,-1.224 -0.444,-0.444 -1.236,-0.444 h -1.188 z m 6.12,0.96 v -8.76 h 1.08 v 3.768 h 1.296 l 1.944,-3.768 h 1.176 l -2.172,4.224 2.292,4.536 h -1.236 l -2.04,-4.044 h -1.26 V 292 Z m 16.89601,-3.12 q -0.444,0 -0.72,-0.264 -0.264,-0.264 -0.264,-0.684 0,-0.444 0.264,-0.72 0.276,-0.276 0.72,-0.276 0.444,0 0.708,0.276 0.276,0.276 0.276,0.72 0,0.42 -0.276,0.684 -0.264,0.264 -0.708,0.264 z m 13.82401,3.24 q -1.02,0 -1.62,-0.564 -0.6,-0.576 -0.6,-1.5 0,-0.612 0.276,-1.068 0.276,-0.456 0.768,-0.708 0.492,-0.264 1.128,-0.264 h 2.04 V 287.5 q 0,-1.284 -1.404,-1.284 -0.624,0 -1.008,0.228 -0.384,0.228 -0.408,0.636 h -1.08 q 0.06,-0.78 0.72,-1.284 0.672,-0.516 1.776,-0.516 1.2,0 1.836,0.576 0.648,0.576 0.648,1.608 V 292 h -1.068 v -1.2 h -0.024 q -0.096,0.612 -0.612,0.972 -0.516,0.348 -1.368,0.348 z m 0.264,-0.912 q 0.792,0 1.26,-0.384 0.468,-0.384 0.468,-1.044 v -0.924 h -1.92 q -0.528,0 -0.864,0.324 -0.324,0.312 -0.324,0.84 0,0.552 0.36,0.876 0.372,0.312 1.02,0.312 z m 8.472,0.792 q -0.876,0 -1.404,-0.504 -0.516,-0.516 -0.516,-1.356 v -5.916 h -2.28 v -0.984 h 3.36 v 6.9 q 0,0.408 0.228,0.648 0.228,0.228 0.612,0.228 h 2.04 V 292 Z m 7.20001,0 q -0.876,0 -1.404,-0.504 -0.516,-0.516 -0.516,-1.356 v -5.916 h -2.28 v -0.984 h 3.36 v 6.9 q 0,0.408 0.228,0.648 0.228,0.228 0.612,0.228 h 2.04 V 292 Z m 6.24,0.096 q -1.188,0 -1.896,-0.696 -0.696,-0.696 -0.696,-1.944 v -1.512 q 0,-1.26 0.696,-1.944 0.696,-0.696 1.896,-0.696 1.2,0 1.896,0.696 0.696,0.684 0.696,1.944 v 1.512 q 0,1.248 -0.708,1.944 -0.696,0.696 -1.884,0.696 z m 0,-0.96 q 0.708,0 1.104,-0.396 0.408,-0.396 0.408,-1.164 v -1.752 q 0,-0.768 -0.408,-1.164 -0.396,-0.396 -1.104,-0.396 -0.696,0 -1.104,0.396 -0.408,0.396 -0.408,1.164 v 1.752 q 0,0.768 0.408,1.164 0.408,0.396 1.104,0.396 z m 5.73601,3.024 0.972,-2.568 -2.46,-6.192 h 1.164 l 1.56,4.08 q 0.096,0.24 0.18,0.504 0.084,0.264 0.12,0.456 0.036,-0.192 0.12,-0.456 0.084,-0.264 0.168,-0.504 l 1.452,-4.08 h 1.14 l -3.288,8.76 z m 15.60001,-2.064 q -1.104,0 -1.716,-0.492 -0.6,-0.504 -0.6,-1.416 h 1.08 q 0,0.456 0.324,0.72 0.324,0.252 0.912,0.252 h 0.528 q 0.6,0 0.924,-0.264 0.336,-0.264 0.336,-0.744 0,-0.852 -0.78,-0.96 l -1.824,-0.264 q -0.672,-0.096 -1.044,-0.552 -0.372,-0.468 -0.372,-1.224 0,-0.864 0.588,-1.356 0.6,-0.492 1.644,-0.492 h 0.528 q 0.96,0 1.56,0.48 0.612,0.468 0.66,1.236 h -1.092 q -0.024,-0.348 -0.336,-0.576 -0.3,-0.228 -0.792,-0.228 h -0.528 q -0.552,0 -0.864,0.252 -0.312,0.252 -0.312,0.684 0,0.696 0.636,0.792 l 1.704,0.24 q 1.68,0.24 1.68,1.968 0,0.924 -0.612,1.44 -0.6,0.504 -1.704,0.504 z m 4.884,-0.096 v -0.984 h 2.34 v -4.632 h -2.1 V 285.4 h 3.18 v 5.616 h 2.22 V 292 Z m 2.76,-7.788 q -0.396,0 -0.624,-0.204 -0.228,-0.204 -0.228,-0.552 0,-0.36 0.228,-0.564 0.228,-0.216 0.624,-0.216 0.396,0 0.624,0.216 0.228,0.204 0.228,0.564 0,0.348 -0.228,0.552 -0.228,0.204 -0.624,0.204 z m 5.352,9.948 v -0.984 h 1.86 q 0.564,0 0.888,-0.324 0.324,-0.312 0.324,-0.852 v -0.6 l 0.024,-1.08 h -0.036 q -0.096,0.588 -0.564,0.912 -0.468,0.312 -1.176,0.312 -1.02,0 -1.608,-0.648 -0.588,-0.648 -0.588,-1.776 v -1.392 q 0,-1.128 0.588,-1.788 0.588,-0.66 1.608,-0.66 0.708,0 1.176,0.336 0.468,0.336 0.564,0.924 h 0.024 v -1.14 h 1.068 v 6.6 q 0,0.996 -0.624,1.572 -0.612,0.588 -1.68,0.588 z m 1.644,-3.516 q 0.672,0 1.056,-0.42 0.384,-0.42 0.384,-1.164 v -1.26 q 0,-0.744 -0.384,-1.164 -0.384,-0.42 -1.056,-0.42 -0.684,0 -1.068,0.396 -0.372,0.396 -0.372,1.068 v 1.5 q 0,0.672 0.372,1.068 0.384,0.396 1.068,0.396 z m 4.72801,1.356 v -6.6 h 1.08 v 1.26 h 0.012 q 0.084,-0.66 0.54,-1.02 0.456,-0.36 1.212,-0.36 0.996,0 1.584,0.612 0.588,0.612 0.588,1.668 V 292 h -1.08 v -4.248 q 0,-0.756 -0.384,-1.152 -0.372,-0.408 -1.02,-0.408 -0.672,0 -1.068,0.42 -0.384,0.42 -0.384,1.188 v 4.2 z m 9.69601,0.12 q -1.164,0 -1.884,-0.696 -0.708,-0.708 -0.708,-1.944 v -1.56 q 0,-1.236 0.708,-1.932 0.72,-0.708 1.884,-0.708 0.78,0 1.356,0.312 0.588,0.312 0.912,0.876 0.324,0.564 0.324,1.332 v 1.176 h -4.128 v 0.624 q 0,0.732 0.42,1.164 0.42,0.42 1.116,0.42 0.6,0 0.984,-0.228 0.396,-0.24 0.48,-0.636 h 1.08 q -0.108,0.828 -0.804,1.32 -0.696,0.48 -1.74,0.48 z m -1.536,-3.984 h 3.072 V 287.8 q 0,-0.78 -0.408,-1.2 -0.396,-0.432 -1.128,-0.432 -0.732,0 -1.14,0.432 -0.396,0.42 -0.396,1.2 z m 6.48,3.864 v -6.6 h 1.08 v 1.26 h 0.024 q 0.084,-0.636 0.54,-1.008 0.456,-0.372 1.224,-0.372 1.032,0 1.584,0.624 0.564,0.612 0.564,1.752 v 0.564 h -1.08 v -0.564 q 0,-1.44 -1.404,-1.44 -0.708,0 -1.08,0.408 -0.372,0.408 -0.372,1.176 v 4.2 z m 16.65601,-3.12 q -0.444,0 -0.72,-0.264 -0.264,-0.264 -0.264,-0.684 0,-0.444 0.264,-0.72 0.276,-0.276 0.72,-0.276 0.444,0 0.708,0.276 0.276,0.276 0.276,0.72 0,0.42 -0.276,0.684 -0.264,0.264 -0.708,0.264 z m 14.49601,3.24 q -1.2,0 -1.896,-0.672 -0.696,-0.672 -0.696,-1.848 v -3.96 q 0,-1.176 0.696,-1.848 0.696,-0.672 1.896,-0.672 1.176,0 1.872,0.684 0.696,0.672 0.696,1.836 h -1.08 q 0,-0.744 -0.396,-1.14 -0.384,-0.408 -1.092,-0.408 -0.708,0 -1.116,0.408 -0.396,0.396 -0.396,1.14 v 3.96 q 0,0.744 0.396,1.152 0.408,0.396 1.116,0.396 0.708,0 1.092,-0.396 0.396,-0.408 0.396,-1.152 h 1.08 q 0,1.164 -0.696,1.848 -0.696,0.672 -1.872,0.672 z m 5.064,-0.12 v -8.76 h 1.08 v 7.776 h 3.96 V 292 Z m 6.90001,0 v -0.984 h 1.788 v -6.792 h -1.788 v -0.984 h 4.68 v 0.984 h -1.788 v 6.792 h 1.788 V 292 Z m 16.74001,-3.12 q -0.444,0 -0.72,-0.264 -0.264,-0.264 -0.264,-0.684 0,-0.444 0.264,-0.72 0.276,-0.276 0.72,-0.276 0.444,0 0.708,0.276 0.276,0.276 0.276,0.72 0,0.42 -0.276,0.684 -0.264,0.264 -0.708,0.264 z m 11.90401,3.12 v -8.76 h 2.82 q 1.224,0 1.944,0.708 0.732,0.696 0.732,1.872 0,1.176 -0.732,1.884 -0.72,0.696 -1.944,0.696 h -1.74 v 3.6 z m 1.08,-4.572 h 1.74 q 0.708,0 1.128,-0.432 0.432,-0.444 0.432,-1.176 0,-0.744 -0.432,-1.176 -0.42,-0.432 -1.128,-0.432 h -1.74 z m 8.71201,4.692 q -1.2,0 -1.896,-0.672 -0.696,-0.672 -0.696,-1.848 v -3.96 q 0,-1.176 0.696,-1.848 0.696,-0.672 1.896,-0.672 1.176,0 1.872,0.684 0.696,0.672 0.696,1.836 h -1.08 q 0,-0.744 -0.396,-1.14 -0.384,-0.408 -1.092,-0.408 -0.708,0 -1.116,0.408 -0.396,0.396 -0.396,1.14 v 3.96 q 0,0.744 0.396,1.152 0.408,0.396 1.116,0.396 0.708,0 1.092,-0.396 0.396,-0.408 0.396,-1.152 h 1.08 q 0,1.164 -0.696,1.848 -0.696,0.672 -1.872,0.672 z m 4.404,1.2 4.26,-11.28 h 1.14 l -4.26,11.28 z m 9.94799,-1.2 q -1.272,0 -2.028,-0.672 -0.756,-0.672 -0.756,-1.848 h 1.08 q 0,0.732 0.468,1.152 0.468,0.408 1.236,0.408 0.744,0 1.188,-0.432 0.444,-0.432 0.444,-1.128 0,-0.528 -0.288,-0.912 -0.276,-0.396 -0.804,-0.54 l -1.332,-0.372 q -0.828,-0.24 -1.308,-0.852 -0.468,-0.624 -0.468,-1.464 0,-0.696 0.312,-1.224 0.312,-0.528 0.876,-0.816 0.564,-0.3 1.296,-0.3 0.744,0 1.308,0.3 0.576,0.288 0.9,0.816 0.324,0.516 0.324,1.2 h -1.08 q 0,-0.6 -0.408,-0.972 -0.408,-0.384 -1.044,-0.384 -0.636,0 -1.032,0.384 -0.396,0.372 -0.396,0.972 0,0.48 0.252,0.828 0.264,0.336 0.732,0.468 l 1.368,0.384 q 0.876,0.24 1.356,0.912 0.492,0.66 0.492,1.572 0,1.152 -0.732,1.836 -0.732,0.684 -1.956,0.684 z m 7.24801,0 q -1.2,0 -1.896,-0.672 -0.696,-0.672 -0.696,-1.848 v -3.96 q 0,-1.176 0.696,-1.848 0.696,-0.672 1.896,-0.672 1.176,0 1.872,0.684 0.696,0.672 0.696,1.836 h -1.08 q 0,-0.744 -0.396,-1.14 -0.384,-0.408 -1.092,-0.408 -0.708,0 -1.116,0.408 -0.396,0.396 -0.396,1.14 v 3.96 q 0,0.744 0.396,1.152 0.408,0.396 1.116,0.396 0.708,0 1.092,-0.396 0.396,-0.408 0.396,-1.152 h 1.08 q 0,1.164 -0.696,1.848 -0.696,0.672 -1.872,0.672 z m 13.776,-1.26 v -2.34 h -2.292 v -0.96 h 2.292 v -2.34 h 1.056 v 2.34 h 2.292 v 0.96 h -2.292 v 2.34 z m 12.40802,1.14 v -8.76 h 1.44 l 2.676,7.5 q -0.024,-0.3 -0.06,-0.732 -0.024,-0.444 -0.048,-0.924 -0.012,-0.492 -0.012,-0.924 v -4.92 h 1.044 V 292 h -1.44 l -2.664,-7.5 q 0.024,0.288 0.048,0.732 0.024,0.432 0.036,0.924 0.024,0.48 0.024,0.924 V 292 Z m 7.26002,0 v -8.76 h 5.16 v 0.984 h -4.104 v 2.904 h 3.792 v 0.984 h -3.768 V 292 Z m 9.75601,0.12 q -1.2,0 -1.896,-0.672 -0.696,-0.672 -0.696,-1.848 v -3.96 q 0,-1.176 0.696,-1.848 0.696,-0.672 1.896,-0.672 1.176,0 1.872,0.684 0.696,0.672 0.696,1.836 h -1.08 q 0,-0.744 -0.396,-1.14 -0.384,-0.408 -1.092,-0.408 -0.708,0 -1.116,0.408 -0.396,0.396 -0.396,1.14 v 3.96 q 0,0.744 0.396,1.152 0.408,0.396 1.116,0.396 0.708,0 1.092,-0.396 0.396,-0.408 0.396,-1.152 h 1.08 q 0,1.164 -0.696,1.848 -0.696,0.672 -1.872,0.672 z M 395.0602,292 q -0.816,0 -1.308,-0.468 -0.492,-0.48 -0.492,-1.272 v -3.876 h -1.896 V 285.4 h 1.896 v -1.86 h 1.08 v 1.86 h 2.7 v 0.984 h -2.7 v 3.876 q 0,0.336 0.192,0.552 0.204,0.204 0.528,0.204 h 1.92 V 292 Z m 4.28401,0 v -6.6 h 1.08 v 1.26 h 0.024 q 0.084,-0.636 0.54,-1.008 0.456,-0.372 1.224,-0.372 1.032,0 1.584,0.624 0.564,0.612 0.564,1.752 v 0.564 h -1.08 v -0.564 q 0,-1.44 -1.404,-1.44 -0.708,0 -1.08,0.408 -0.372,0.408 -0.372,1.176 v 4.2 z m 8.87999,0.12 q -1.02,0 -1.62,-0.564 -0.6,-0.576 -0.6,-1.5 0,-0.612 0.276,-1.068 0.276,-0.456 0.768,-0.708 0.492,-0.264 1.128,-0.264 h 2.04 V 287.5 q 0,-1.284 -1.404,-1.284 -0.624,0 -1.008,0.228 -0.384,0.228 -0.408,0.636 h -1.08 q 0.06,-0.78 0.72,-1.284 0.672,-0.516 1.776,-0.516 1.2,0 1.836,0.576 0.648,0.576 0.648,1.608 V 292 h -1.068 v -1.2 h -0.024 q -0.096,0.612 -0.612,0.972 -0.516,0.348 -1.368,0.348 z m 0.264,-0.912 q 0.792,0 1.26,-0.384 0.468,-0.384 0.468,-1.044 v -0.924 h -1.92 q -0.528,0 -0.864,0.324 -0.324,0.312 -0.324,0.84 0,0.552 0.36,0.876 0.372,0.312 1.02,0.312 z m 5.01601,0.792 v -6.6 h 1.08 v 1.26 h 0.012 q 0.084,-0.66 0.54,-1.02 0.456,-0.36 1.212,-0.36 0.996,0 1.584,0.612 0.588,0.612 0.588,1.668 V 292 h -1.08 v -4.248 q 0,-0.756 -0.384,-1.152 -0.372,-0.408 -1.02,-0.408 -0.672,0 -1.068,0.42 -0.384,0.42 -0.384,1.188 v 4.2 z m 9.43201,0.096 q -1.104,0 -1.716,-0.492 -0.6,-0.504 -0.6,-1.416 h 1.08 q 0,0.456 0.324,0.72 0.324,0.252 0.912,0.252 h 0.528 q 0.6,0 0.924,-0.264 0.336,-0.264 0.336,-0.744 0,-0.852 -0.78,-0.96 l -1.824,-0.264 q -0.672,-0.096 -1.044,-0.552 -0.372,-0.468 -0.372,-1.224 0,-0.864 0.588,-1.356 0.6,-0.492 1.644,-0.492 h 0.528 q 0.96,0 1.56,0.48 0.612,0.468 0.66,1.236 h -1.092 q -0.024,-0.348 -0.336,-0.576 -0.3,-0.228 -0.792,-0.228 h -0.528 q -0.552,0 -0.864,0.252 -0.312,0.252 -0.312,0.684 0,0.696 0.636,0.792 l 1.704,0.24 q 1.68,0.24 1.68,1.968 0,0.924 -0.612,1.44 -0.6,0.504 -1.704,0.504 z m 4.96801,2.064 v -8.76 h 1.08 v 1.26 h 0.012 q 0.084,-0.648 0.564,-1.008 0.48,-0.372 1.224,-0.372 0.996,0 1.584,0.66 0.588,0.648 0.588,1.788 v 1.932 q 0,1.14 -0.588,1.8 -0.588,0.66 -1.584,0.66 -0.744,0 -1.224,-0.372 -0.48,-0.372 -0.564,-1.008 h -0.036 l 0.024,1.5 v 1.92 z m 2.52,-2.976 q 0.684,0 1.068,-0.36 0.384,-0.36 0.384,-1.164 v -1.92 q 0,-0.816 -0.384,-1.164 -0.384,-0.36 -1.068,-0.36 -0.66,0 -1.056,0.42 -0.384,0.42 -0.384,1.164 v 1.8 q 0,0.744 0.384,1.164 0.396,0.42 1.056,0.42 z m 7.17601,0.912 q -1.188,0 -1.896,-0.696 -0.696,-0.696 -0.696,-1.944 v -1.512 q 0,-1.26 0.696,-1.944 0.696,-0.696 1.896,-0.696 1.2,0 1.896,0.696 0.696,0.684 0.696,1.944 v 1.512 q 0,1.248 -0.708,1.944 -0.696,0.696 -1.884,0.696 z m 0,-0.96 q 0.708,0 1.104,-0.396 0.408,-0.396 0.408,-1.164 v -1.752 q 0,-0.768 -0.408,-1.164 -0.396,-0.396 -1.104,-0.396 -0.696,0 -1.104,0.396 -0.408,0.396 -0.408,1.164 v 1.752 q 0,0.768 0.408,1.164 0.408,0.396 1.104,0.396 z m 4.94399,0.864 v -6.6 h 1.08 v 1.26 h 0.024 q 0.084,-0.636 0.54,-1.008 0.456,-0.372 1.224,-0.372 1.032,0 1.584,0.624 0.564,0.612 0.564,1.752 v 0.564 h -1.08 v -0.564 q 0,-1.44 -1.404,-1.44 -0.708,0 -1.08,0.408 -0.372,0.408 -0.372,1.176 v 4.2 z m 10.11601,0 q -0.816,0 -1.308,-0.468 -0.492,-0.48 -0.492,-1.272 v -3.876 h -1.896 V 285.4 h 1.896 v -1.86 h 1.08 v 1.86 h 2.7 v 0.984 h -2.7 v 3.876 q 0,0.336 0.192,0.552 0.204,0.204 0.528,0.204 h 1.92 V 292 Z m 6.27601,0.096 q -1.104,0 -1.716,-0.492 -0.6,-0.504 -0.6,-1.416 h 1.08 q 0,0.456 0.324,0.72 0.324,0.252 0.912,0.252 h 0.528 q 0.6,0 0.924,-0.264 0.336,-0.264 0.336,-0.744 0,-0.852 -0.78,-0.96 l -1.824,-0.264 q -0.672,-0.096 -1.044,-0.552 -0.372,-0.468 -0.372,-1.224 0,-0.864 0.588,-1.356 0.6,-0.492 1.644,-0.492 h 0.528 q 0.96,0 1.56,0.48 0.612,0.468 0.66,1.236 h -1.092 q -0.024,-0.348 -0.336,-0.576 -0.3,-0.228 -0.792,-0.228 h -0.528 q -0.552,0 -0.864,0.252 -0.312,0.252 -0.312,0.684 0,0.696 0.636,0.792 l 1.704,0.24 q 1.68,0.24 1.68,1.968 0,0.924 -0.612,1.44 -0.6,0.504 -1.704,0.504 z"
     id="text9"
     style="font-size:12px;fill:#5e7c4e"
     aria-label="core SDK · alloy signer · CLI · PC/SC + NFC transports" />
  <path
     d="m 77.024,306.12 q -1.02,0 -1.62,-0.564 -0.6,-0.576 -0.6,-1.5 0,-0.612 0.276,-1.068 0.276,-0.456 0.768,-0.708 0.492,-0.264 1.128,-0.264 h 2.04 V 301.5 q 0,-1.284 -1.404,-1.284 -0.624,0 -1.008,0.228 -0.384,0.228 -0.408,0.636 h -1.08 q 0.06,-0.78 0.72,-1.284 0.672,-0.516 1.776,-0.516 1.2,0 1.836,0.576 0.648,0.576 0.648,1.608 V 306 h -1.068 v -1.2 h -0.024 q -0.096,0.612 -0.612,0.972 -0.516,0.348 -1.368,0.348 z m 0.264,-0.912 q 0.792,0 1.26,-0.384 0.468,-0.384 0.468,-1.044 v -0.924 h -1.92 q -0.528,0 -0.864,0.324 -0.324,0.312 -0.324,0.84 0,0.552 0.36,0.876 0.372,0.312 1.02,0.312 z m 5.016005,2.952 v -8.76 h 1.08 v 1.26 h 0.012 q 0.084,-0.648 0.564,-1.008 0.48,-0.372 1.224,-0.372 0.996,0 1.584,0.66 0.588,0.648 0.588,1.788 v 1.932 q 0,1.14 -0.588,1.8 -0.588,0.66 -1.584,0.66 -0.744,0 -1.224,-0.372 -0.48,-0.372 -0.564,-1.008 h -0.036 l 0.024,1.5 v 1.92 z m 2.52,-2.976 q 0.684,0 1.068,-0.36 0.384,-0.36 0.384,-1.164 v -1.92 q 0,-0.816 -0.384,-1.164 -0.384,-0.36 -1.068,-0.36 -0.66,0 -1.056,0.42 -0.384,0.42 -0.384,1.164 v 1.8 q 0,0.744 0.384,1.164 0.396,0.42 1.056,0.42 z m 4.680004,2.976 v -8.76 h 1.08 v 1.26 h 0.012 q 0.084,-0.648 0.564,-1.008 0.48,-0.372 1.224,-0.372 0.996,0 1.584,0.66 0.588,0.648 0.588,1.788 v 1.932 q 0,1.14 -0.588,1.8 -0.588,0.66 -1.584,0.66 -0.744,0 -1.224,-0.372 -0.48,-0.372 -0.564,-1.008 h -0.036 l 0.024,1.5 v 1.92 z m 2.52,-2.976 q 0.684,0 1.068,-0.36 0.384,-0.36 0.384,-1.164 v -1.92 q 0,-0.816 -0.384,-1.164 -0.384,-0.36 -1.068,-0.36 -0.66,0 -1.056,0.42 -0.384,0.42 -0.384,1.164 v 1.8 q 0,0.744 0.384,1.164 0.396,0.42 1.056,0.42 z M 100.16001,306 q -0.875996,0 -1.403996,-0.504 -0.516,-0.516 -0.516,-1.356 v -5.916 h -2.28 v -0.984 h 3.36 v 6.9 q 0,0.408 0.228,0.648 0.228,0.228 0.611996,0.228 h 2.04 V 306 Z m 6.24001,0.12 q -1.164,0 -1.884,-0.696 -0.708,-0.708 -0.708,-1.944 v -1.56 q 0,-1.236 0.708,-1.932 0.72,-0.708 1.884,-0.708 0.78,0 1.356,0.312 0.588,0.312 0.912,0.876 0.324,0.564 0.324,1.332 v 1.176 h -4.128 v 0.624 q 0,0.732 0.42,1.164 0.42,0.42 1.116,0.42 0.6,0 0.984,-0.228 0.396,-0.24 0.48,-0.636 h 1.08 q -0.108,0.828 -0.804,1.32 -0.696,0.48 -1.74,0.48 z m -1.536,-3.984 h 3.072 V 301.8 q 0,-0.78 -0.408,-1.2 -0.396,-0.432 -1.128,-0.432 -0.732,0 -1.14,0.432 -0.396,0.42 -0.396,1.2 z m 9.396,3.864 q -0.816,0 -1.308,-0.468 -0.492,-0.48 -0.492,-1.272 v -3.876 h -1.896 V 299.4 h 1.896 v -1.86 h 1.08 v 1.86 h 2.7 v 0.984 h -2.7 v 3.876 q 0,0.336 0.192,0.552 0.204,0.204 0.528,0.204 h 1.92 V 306 Z m 6.54001,-4.944 q -0.492,0 -0.744,-0.24 -0.252,-0.24 -0.252,-0.648 0,-0.408 0.252,-0.648 0.252,-0.24 0.744,-0.24 0.492,0 0.744,0.24 0.252,0.24 0.252,0.648 0,0.408 -0.252,0.648 -0.252,0.24 -0.744,0.24 z m 0,5.064 q -0.492,0 -0.744,-0.24 -0.252,-0.24 -0.252,-0.648 0,-0.408 0.252,-0.648 0.252,-0.24 0.744,-0.24 0.492,0 0.744,0.24 0.252,0.24 0.252,0.648 0,0.408 -0.252,0.648 -0.252,0.24 -0.744,0.24 z m 14.13601,-0.024 q -1.104,0 -1.716,-0.492 -0.6,-0.504 -0.6,-1.416 h 1.08 q 0,0.456 0.324,0.72 0.324,0.252 0.912,0.252 h 0.528 q 0.6,0 0.924,-0.264 0.336,-0.264 0.336,-0.744 0,-0.852 -0.78,-0.96 l -1.824,-0.264 q -0.672,-0.096 -1.044,-0.552 -0.372,-0.468 -0.372,-1.224 0,-0.864 0.588,-1.356 0.6,-0.492 1.644,-0.492 h 0.528 q 0.96,0 1.56,0.48 0.612,0.468 0.66,1.236 h -1.092 q -0.024,-0.348 -0.336,-0.576 -0.3,-0.228 -0.792,-0.228 h -0.528 q -0.552,0 -0.864,0.252 -0.312,0.252 -0.312,0.684 0,0.696 0.636,0.792 l 1.704,0.24 q 1.68,0.24 1.68,1.968 0,0.924 -0.612,1.44 -0.6,0.504 -1.704,0.504 z m 8.124,-0.096 q -0.816,0 -1.308,-0.468 -0.492,-0.48 -0.492,-1.272 v -3.876 h -1.896 V 299.4 h 1.896 v -1.86 h 1.08 v 1.86 h 2.7 v 0.984 h -2.7 v 3.876 q 0,0.336 0.192,0.552 0.204,0.204 0.528,0.204 h 1.92 V 306 Z m 5.96401,0.12 q -1.02,0 -1.62,-0.564 -0.6,-0.576 -0.6,-1.5 0,-0.612 0.276,-1.068 0.276,-0.456 0.768,-0.708 0.492,-0.264 1.128,-0.264 h 2.04 V 301.5 q 0,-1.284 -1.404,-1.284 -0.624,0 -1.008,0.228 -0.384,0.228 -0.408,0.636 h -1.08 q 0.06,-0.78 0.72,-1.284 0.672,-0.516 1.776,-0.516 1.2,0 1.836,0.576 0.648,0.576 0.648,1.608 V 306 h -1.068 v -1.2 h -0.024 q -0.096,0.612 -0.612,0.972 -0.516,0.348 -1.368,0.348 z m 0.264,-0.912 q 0.792,0 1.26,-0.384 0.468,-0.384 0.468,-1.044 v -0.924 h -1.92 q -0.528,0 -0.864,0.324 -0.324,0.312 -0.324,0.84 0,0.552 0.36,0.876 0.372,0.312 1.02,0.312 z m 8.172,0.792 q -0.816,0 -1.308,-0.468 -0.492,-0.48 -0.492,-1.272 v -3.876 h -1.896 V 299.4 h 1.896 v -1.86 h 1.08 v 1.86 h 2.7 v 0.984 h -2.7 v 3.876 q 0,0.336 0.192,0.552 0.204,0.204 0.528,0.204 h 1.92 V 306 Z m 6.528,0.12 q -1.14,0 -1.824,-0.672 -0.684,-0.684 -0.684,-1.848 v -4.2 h 1.08 v 4.2 q 0,0.72 0.384,1.152 0.384,0.42 1.044,0.42 0.672,0 1.056,-0.42 0.396,-0.432 0.396,-1.152 v -4.2 h 1.08 v 4.2 q 0,1.164 -0.696,1.848 -0.696,0.672 -1.836,0.672 z m 6.94801,-0.024 q -1.104,0 -1.716,-0.492 -0.6,-0.504 -0.6,-1.416 h 1.08 q 0,0.456 0.324,0.72 0.324,0.252 0.912,0.252 h 0.528 q 0.6,0 0.924,-0.264 0.336,-0.264 0.336,-0.744 0,-0.852 -0.78,-0.96 l -1.824,-0.264 q -0.672,-0.096 -1.044,-0.552 -0.372,-0.468 -0.372,-1.224 0,-0.864 0.588,-1.356 0.6,-0.492 1.644,-0.492 h 0.528 q 0.96,0 1.56,0.48 0.612,0.468 0.66,1.236 h -1.092 q -0.024,-0.348 -0.336,-0.576 -0.3,-0.228 -0.792,-0.228 h -0.528 q -0.552,0 -0.864,0.252 -0.312,0.252 -0.312,0.684 0,0.696 0.636,0.792 l 1.704,0.24 q 1.68,0.24 1.68,1.968 0,0.924 -0.612,1.44 -0.6,0.504 -1.704,0.504 z m 5.544,-3.576 v -0.96 h 3.84 v 0.96 z m 6.54001,3.48 v -0.984 h 2.34 v -4.632 h -2.1 V 299.4 h 3.18 v 5.616 h 2.22 V 306 Z m 2.76,-7.788 q -0.396,0 -0.624,-0.204 -0.228,-0.204 -0.228,-0.552 0,-0.36 0.228,-0.564 0.228,-0.216 0.624,-0.216 0.396,0 0.624,0.216 0.228,0.204 0.228,0.564 0,0.348 -0.228,0.552 -0.228,0.204 -0.624,0.204 z m 4.14,7.788 v -6.6 h 0.936 v 0.876 h 0.024 q 0.06,-0.444 0.348,-0.72 0.3,-0.276 0.756,-0.276 0.432,0 0.732,0.252 0.3,0.252 0.432,0.684 h 0.012 q 0.084,-0.432 0.372,-0.684 0.3,-0.252 0.756,-0.252 0.636,0 1.008,0.48 0.384,0.468 0.384,1.224 V 306 h -1.008 v -5.028 q 0,-0.396 -0.192,-0.624 -0.192,-0.24 -0.528,-0.24 -0.324,0 -0.516,0.228 -0.192,0.228 -0.192,0.624 V 306 h -0.888 v -5.028 q 0,-0.396 -0.192,-0.624 -0.192,-0.24 -0.516,-0.24 -0.336,0 -0.528,0.228 -0.192,0.228 -0.192,0.624 V 306 Z m 7.38001,1.32 4.26,-11.28 h 1.14 l -4.26,11.28 z m 9.636,-1.224 q -1.104,0 -1.716,-0.492 -0.6,-0.504 -0.6,-1.416 h 1.08 q 0,0.456 0.324,0.72 0.324,0.252 0.912,0.252 h 0.528 q 0.6,0 0.924,-0.264 0.336,-0.264 0.336,-0.744 0,-0.852 -0.78,-0.96 l -1.824,-0.264 q -0.672,-0.096 -1.044,-0.552 -0.372,-0.468 -0.372,-1.224 0,-0.864 0.588,-1.356 0.6,-0.492 1.644,-0.492 h 0.528 q 0.96,0 1.56,0.48 0.612,0.468 0.66,1.236 h -1.092 q -0.024,-0.348 -0.336,-0.576 -0.3,-0.228 -0.792,-0.228 h -0.528 q -0.552,0 -0.864,0.252 -0.312,0.252 -0.312,0.684 0,0.696 0.636,0.792 l 1.704,0.24 q 1.68,0.24 1.68,1.968 0,0.924 -0.612,1.44 -0.6,0.504 -1.704,0.504 z m 8.124,-0.096 q -0.816,0 -1.308,-0.468 -0.492,-0.48 -0.492,-1.272 v -3.876 h -1.896 V 299.4 h 1.896 v -1.86 h 1.08 v 1.86 h 2.7 v 0.984 h -2.7 v 3.876 q 0,0.336 0.192,0.552 0.204,0.204 0.528,0.204 h 1.92 V 306 Z m 5.96401,0.12 q -1.02,0 -1.62,-0.564 -0.6,-0.576 -0.6,-1.5 0,-0.612 0.276,-1.068 0.276,-0.456 0.768,-0.708 0.492,-0.264 1.128,-0.264 h 2.04 V 301.5 q 0,-1.284 -1.404,-1.284 -0.624,0 -1.008,0.228 -0.384,0.228 -0.408,0.636 h -1.08 q 0.06,-0.78 0.72,-1.284 0.672,-0.516 1.776,-0.516 1.2,0 1.836,0.576 0.648,0.576 0.648,1.608 V 306 h -1.068 v -1.2 h -0.024 q -0.096,0.612 -0.612,0.972 -0.516,0.348 -1.368,0.348 z m 0.264,-0.912 q 0.792,0 1.26,-0.384 0.468,-0.384 0.468,-1.044 v -0.924 h -1.92 q -0.528,0 -0.864,0.324 -0.324,0.312 -0.324,0.84 0,0.552 0.36,0.876 0.372,0.312 1.02,0.312 z M 229.4601,306 q -0.816,0 -1.308,-0.468 -0.492,-0.48 -0.492,-1.272 v -3.876 h -1.896 V 299.4 h 1.896 v -1.86 h 1.08 v 1.86 h 2.7 v 0.984 h -2.7 v 3.876 q 0,0.336 0.192,0.552 0.204,0.204 0.528,0.204 h 1.92 V 306 Z m 6.528,0.12 q -1.14,0 -1.824,-0.672 -0.684,-0.684 -0.684,-1.848 v -4.2 h 1.08 v 4.2 q 0,0.72 0.384,1.152 0.384,0.42 1.044,0.42 0.672,0 1.056,-0.42 0.396,-0.432 0.396,-1.152 v -4.2 h 1.08 v 4.2 q 0,1.164 -0.696,1.848 -0.696,0.672 -1.836,0.672 z m 6.948,-0.024 q -1.104,0 -1.716,-0.492 -0.6,-0.504 -0.6,-1.416 h 1.08 q 0,0.456 0.324,0.72 0.324,0.252 0.912,0.252 h 0.528 q 0.6,0 0.924,-0.264 0.336,-0.264 0.336,-0.744 0,-0.852 -0.78,-0.96 l -1.824,-0.264 q -0.672,-0.096 -1.044,-0.552 -0.372,-0.468 -0.372,-1.224 0,-0.864 0.588,-1.356 0.6,-0.492 1.644,-0.492 h 0.528 q 0.96,0 1.56,0.48 0.612,0.468 0.66,1.236 h -1.092 q -0.024,-0.348 -0.336,-0.576 -0.3,-0.228 -0.792,-0.228 h -0.528 q -0.552,0 -0.864,0.252 -0.312,0.252 -0.312,0.684 0,0.696 0.636,0.792 l 1.704,0.24 q 1.68,0.24 1.68,1.968 0,0.924 -0.612,1.44 -0.6,0.504 -1.704,0.504 z m 5.54401,-3.576 v -0.96 h 3.84 v 0.96 z m 6.68401,3.48 v -8.76 h 1.08 v 4.884 h 1.26 l 1.848,-2.724 h 1.236 l -2.124,3.144 2.244,3.456 h -1.26 l -1.92,-2.94 h -1.284 V 306 Z m 9.636,0.12 q -1.164,0 -1.884,-0.696 -0.708,-0.708 -0.708,-1.944 v -1.56 q 0,-1.236 0.708,-1.932 0.72,-0.708 1.884,-0.708 0.78,0 1.356,0.312 0.588,0.312 0.912,0.876 0.324,0.564 0.324,1.332 v 1.176 h -4.128 v 0.624 q 0,0.732 0.42,1.164 0.42,0.42 1.116,0.42 0.6,0 0.984,-0.228 0.396,-0.24 0.48,-0.636 h 1.08 q -0.108,0.828 -0.804,1.32 -0.696,0.48 -1.74,0.48 z m -1.536,-3.984 h 3.072 V 301.8 q 0,-0.78 -0.408,-1.2 -0.396,-0.432 -1.128,-0.432 -0.732,0 -1.14,0.432 -0.396,0.42 -0.396,1.2 z m 7.272,6.024 0.972,-2.568 -2.46,-6.192 h 1.164 l 1.56,4.08 q 0.096,0.24 0.18,0.504 0.084,0.264 0.12,0.456 0.036,-0.192 0.12,-0.456 0.084,-0.264 0.168,-0.504 l 1.452,-4.08 h 1.14 l -3.288,8.76 z m 8.76001,-2.04 q -1.2,0 -1.92,-0.672 -0.72,-0.672 -0.72,-1.848 v -1.8 q 0,-1.176 0.72,-1.848 0.72,-0.672 1.92,-0.672 1.14,0 1.836,0.612 0.708,0.612 0.744,1.668 h -1.08 q -0.036,-0.636 -0.432,-0.972 -0.396,-0.348 -1.068,-0.348 -0.708,0 -1.14,0.408 -0.42,0.396 -0.42,1.14 v 1.812 q 0,0.744 0.42,1.152 0.432,0.408 1.14,0.408 0.672,0 1.068,-0.348 0.396,-0.348 0.432,-0.972 h 1.08 q -0.036,1.056 -0.744,1.668 -0.696,0.612 -1.836,0.612 z m 6.52801,0 q -1.02,0 -1.62,-0.564 -0.6,-0.576 -0.6,-1.5 0,-0.612 0.276,-1.068 0.276,-0.456 0.768,-0.708 0.492,-0.264 1.128,-0.264 h 2.04 V 301.5 q 0,-1.284 -1.404,-1.284 -0.624,0 -1.008,0.228 -0.384,0.228 -0.408,0.636 h -1.08 q 0.06,-0.78 0.72,-1.284 0.672,-0.516 1.776,-0.516 1.2,0 1.836,0.576 0.648,0.576 0.648,1.608 V 306 h -1.068 v -1.2 h -0.024 q -0.096,0.612 -0.612,0.972 -0.516,0.348 -1.368,0.348 z m 0.264,-0.912 q 0.792,0 1.26,-0.384 0.468,-0.384 0.468,-1.044 v -0.924 h -1.92 q -0.528,0 -0.864,0.324 -0.324,0.312 -0.324,0.84 0,0.552 0.36,0.876 0.372,0.312 1.02,0.312 z m 5.256,0.792 v -6.6 h 1.08 v 1.26 h 0.024 q 0.084,-0.636 0.54,-1.008 0.456,-0.372 1.224,-0.372 1.032,0 1.584,0.624 0.564,0.612 0.564,1.752 v 0.564 h -1.08 v -0.564 q 0,-1.44 -1.404,-1.44 -0.708,0 -1.08,0.408 -0.372,0.408 -0.372,1.176 v 4.2 z m 9.07199,0.12 q -0.984,0 -1.584,-0.66 -0.588,-0.66 -0.588,-1.788 v -1.932 q 0,-1.14 0.588,-1.8 0.588,-0.66 1.584,-0.66 0.744,0 1.224,0.372 0.492,0.372 0.588,1.008 h 0.012 l -0.024,-1.5 v -1.92 h 1.08 V 306 h -1.08 v -1.26 h -0.012 q -0.084,0.648 -0.564,1.02 -0.48,0.36 -1.224,0.36 z m 0.36,-0.936 q 0.672,0 1.056,-0.42 0.384,-0.42 0.384,-1.164 v -1.8 q 0,-0.744 -0.384,-1.164 -0.384,-0.42 -1.056,-0.42 -0.684,0 -1.068,0.36 -0.384,0.348 -0.384,1.164 v 1.92 q 0,0.804 0.384,1.164 0.384,0.36 1.068,0.36 z"
     id="text10"
     style="font-size:12px;fill:#5e7c4e"
     aria-label="applet: status-im/status-keycard" />
  <path
     d="m 1046.2509,65 -2.057,-6.05 h 1.067 l 1.32,4.07 q 0.121,0.363 0.209,0.704 0.088,0.33 0.132,0.517 0.055,-0.187 0.132,-0.517 0.077,-0.341 0.187,-0.704 l 1.32,-4.07 h 1.045 l -2.057,6.05 z m 8.849,0.11 q -1.111,0 -1.771,-0.638 -0.649,-0.649 -0.649,-1.727 v -3.52 q 0,-1.078 0.649,-1.716 0.66,-0.649 1.771,-0.649 1.111,0 1.76,0.649 0.66,0.638 0.66,1.716 v 3.52 q 0,0.715 -0.297,1.254 -0.297,0.528 -0.847,0.825 -0.539,0.286 -1.276,0.286 z m 0,-0.847 q 0.66,0 1.056,-0.418 0.407,-0.429 0.407,-1.1 v -3.52 q 0,-0.671 -0.407,-1.089 -0.396,-0.429 -1.056,-0.429 -0.66,0 -1.067,0.429 -0.396,0.418 -0.396,1.089 v 3.52 q 0,0.671 0.396,1.1 0.407,0.418 1.067,0.418 z m 0,-2.673 q -0.297,0 -0.484,-0.165 -0.176,-0.165 -0.176,-0.473 0,-0.297 0.176,-0.451 0.187,-0.165 0.484,-0.165 0.297,0 0.473,0.165 0.187,0.154 0.187,0.451 0,0.308 -0.187,0.473 -0.176,0.165 -0.473,0.165 z m 8.2,3.52 q -0.407,0 -0.66,-0.242 -0.242,-0.242 -0.242,-0.627 0,-0.407 0.242,-0.66 0.253,-0.253 0.66,-0.253 0.407,0 0.649,0.253 0.253,0.253 0.253,0.66 0,0.385 -0.253,0.627 -0.242,0.242 -0.649,0.242 z m 5.846,-0.11 v -0.913 l 2.673,-2.86 q 0.583,-0.616 0.825,-1.1 0.242,-0.484 0.242,-0.946 0,-0.66 -0.385,-1.045 -0.374,-0.396 -1.023,-0.396 -0.671,0 -1.067,0.407 -0.385,0.396 -0.385,1.078 h -0.99 q 0.033,-1.089 0.693,-1.727 0.66,-0.638 1.749,-0.638 1.111,0 1.76,0.627 0.66,0.627 0.66,1.705 0,0.572 -0.319,1.21 -0.308,0.638 -1.067,1.43 l -2.167,2.266 h 3.652 V 65 Z m 10.554,0.11 q -0.407,0 -0.66,-0.242 -0.242,-0.242 -0.242,-0.627 0,-0.407 0.242,-0.66 0.253,-0.253 0.66,-0.253 0.407,0 0.649,0.253 0.253,0.253 0.253,0.66 0,0.385 -0.253,0.627 -0.242,0.242 -0.649,0.242 z m 8.2,0 q -1.111,0 -1.771,-0.638 -0.649,-0.649 -0.649,-1.727 v -3.52 q 0,-1.078 0.649,-1.716 0.66,-0.649 1.771,-0.649 1.111,0 1.76,0.649 0.66,0.638 0.66,1.716 v 3.52 q 0,0.715 -0.297,1.254 -0.297,0.528 -0.847,0.825 -0.539,0.286 -1.276,0.286 z m 0,-0.847 q 0.66,0 1.056,-0.418 0.407,-0.429 0.407,-1.1 v -3.52 q 0,-0.671 -0.407,-1.089 -0.396,-0.429 -1.056,-0.429 -0.66,0 -1.067,0.429 -0.396,0.418 -0.396,1.089 v 3.52 q 0,0.671 0.396,1.1 0.407,0.418 1.067,0.418 z m 0,-2.673 q -0.297,0 -0.484,-0.165 -0.176,-0.165 -0.176,-0.473 0,-0.297 0.176,-0.451 0.187,-0.165 0.484,-0.165 0.297,0 0.473,0.165 0.187,0.154 0.187,0.451 0,0.308 -0.187,0.473 -0.176,0.165 -0.473,0.165 z m 16.4,0.55 q -0.407,0 -0.66,-0.242 -0.242,-0.242 -0.242,-0.627 0,-0.407 0.242,-0.66 0.253,-0.253 0.66,-0.253 0.407,0 0.649,0.253 0.253,0.253 0.253,0.66 0,0.385 -0.253,0.627 -0.242,0.242 -0.649,0.242 z M 1118.412,65 v -8.03 h 2.585 q 1.122,0 1.782,0.649 0.671,0.638 0.671,1.716 0,1.078 -0.671,1.727 -0.66,0.638 -1.782,0.638 h -1.595 V 65 Z m 0.99,-4.191 h 1.595 q 0.649,0 1.034,-0.396 0.396,-0.407 0.396,-1.078 0,-0.682 -0.396,-1.078 -0.385,-0.396 -1.034,-0.396 h -1.595 z m 7.221,4.191 v -8.03 h 2.475 q 0.715,0 1.254,0.297 0.539,0.286 0.836,0.803 0.297,0.517 0.297,1.21 0,0.814 -0.418,1.397 -0.418,0.583 -1.111,0.814 l 1.639,3.509 h -1.089 l -1.573,-3.41 h -1.331 V 65 Z m 0.979,-4.301 h 1.496 q 0.616,0 0.99,-0.385 0.374,-0.396 0.374,-1.034 0,-0.649 -0.374,-1.034 -0.374,-0.385 -0.99,-0.385 h -1.496 z M 1134.9,65 v -8.03 h 4.62 v 0.902 h -3.641 v 2.486 h 3.256 v 0.88 h -3.256 v 2.86 h 3.641 V 65 Z m 8.64,-3.19 v -0.88 h 3.52 v 0.88 z m 7.683,3.19 v -8.03 h 2.475 q 0.715,0 1.254,0.297 0.539,0.286 0.836,0.803 0.297,0.517 0.297,1.21 0,0.814 -0.418,1.397 -0.418,0.583 -1.111,0.814 l 1.639,3.509 h -1.089 l -1.573,-3.41 h -1.331 V 65 Z m 0.979,-4.301 h 1.496 q 0.616,0 0.99,-0.385 0.374,-0.396 0.374,-1.034 0,-0.649 -0.374,-1.034 -0.374,-0.385 -0.99,-0.385 h -1.496 z M 1159.5,65 v -8.03 h 4.62 v 0.902 h -3.641 v 2.486 h 3.256 v 0.88 h -3.256 v 2.86 h 3.641 V 65 Z m 8.53,0 v -8.03 h 0.99 v 7.128 h 3.63 V 65 Z m 7.87,0 v -8.03 h 4.62 v 0.902 h -3.641 v 2.486 h 3.256 v 0.88 h -3.256 v 2.86 h 3.641 V 65 Z m 7.65,0 2.09,-8.03 h 1.331 l 2.079,8.03 h -1.001 l -0.528,-2.134 h -2.431 L 1184.562,65 Z m 1.738,-2.97 h 2.024 l -0.616,-2.475 q -0.176,-0.704 -0.275,-1.177 -0.099,-0.473 -0.121,-0.616 -0.022,0.143 -0.121,0.616 -0.099,0.473 -0.275,1.166 z m 9.256,3.08 q -1.166,0 -1.859,-0.616 -0.693,-0.616 -0.693,-1.694 h 0.99 q 0,0.671 0.429,1.056 0.429,0.374 1.133,0.374 0.682,0 1.089,-0.396 0.407,-0.396 0.407,-1.034 0,-0.484 -0.264,-0.836 -0.253,-0.363 -0.737,-0.495 l -1.221,-0.341 q -0.759,-0.22 -1.199,-0.781 -0.429,-0.572 -0.429,-1.342 0,-0.638 0.286,-1.122 0.286,-0.484 0.803,-0.748 0.517,-0.275 1.188,-0.275 0.682,0 1.199,0.275 0.528,0.264 0.825,0.748 0.297,0.473 0.297,1.1 h -0.99 q 0,-0.55 -0.374,-0.891 -0.374,-0.352 -0.957,-0.352 -0.583,0 -0.946,0.352 -0.363,0.341 -0.363,0.891 0,0.44 0.231,0.759 0.242,0.308 0.671,0.429 l 1.254,0.352 q 0.803,0.22 1.243,0.836 0.451,0.605 0.451,1.441 0,1.056 -0.671,1.683 -0.671,0.627 -1.793,0.627 z M 1200.5,65 v -8.03 h 4.62 v 0.902 h -3.641 v 2.486 h 3.256 v 0.88 h -3.256 v 2.86 h 3.641 V 65 Z"
     id="text11"
     style="font-size:11px;letter-spacing:1.6;text-anchor:end;fill:#a8d68a"
     aria-label="v0.2.0 · PRE-RELEASE" />
  <path
     d="m 1143.95,306 2.09,-8.03 h 1.331 l 2.079,8.03 h -1.001 l -0.528,-2.134 h -2.431 l -0.528,2.134 z m 1.738,-2.97 h 2.024 l -0.616,-2.475 q -0.176,-0.704 -0.275,-1.177 -0.099,-0.473 -0.121,-0.616 -0.022,0.143 -0.121,0.616 -0.099,0.473 -0.275,1.166 z m 9.056,3.08 q -1.1,0 -1.738,-0.616 -0.638,-0.616 -0.638,-1.694 v -3.63 q 0,-1.078 0.638,-1.694 0.638,-0.616 1.738,-0.616 1.078,0 1.716,0.627 0.638,0.616 0.638,1.683 h -0.99 q 0,-0.682 -0.363,-1.045 -0.352,-0.374 -1.001,-0.374 -0.649,0 -1.023,0.363 -0.363,0.363 -0.363,1.045 v 3.641 q 0,0.682 0.363,1.056 0.374,0.374 1.023,0.374 0.649,0 1.001,-0.374 0.363,-0.374 0.363,-1.056 v -1.1 h -1.628 v -0.902 h 2.618 v 2.002 q 0,1.067 -0.638,1.694 -0.638,0.616 -1.716,0.616 z m 5.668,-0.11 v -8.03 h 2.585 q 1.122,0 1.782,0.649 0.671,0.638 0.671,1.716 0,1.078 -0.671,1.727 -0.66,0.638 -1.782,0.638 h -1.595 v 3.3 z m 0.99,-4.191 h 1.595 q 0.649,0 1.034,-0.396 0.396,-0.407 0.396,-1.078 0,-0.682 -0.396,-1.078 -0.385,-0.396 -1.034,-0.396 h -1.595 z m 7.428,4.191 v -8.03 h 0.99 v 7.128 h 3.63 V 306 Z m 8.11,-3.19 v -0.88 h 3.52 v 0.88 z m 9.639,3.3 q -1.111,0 -1.76,-0.616 -0.649,-0.627 -0.649,-1.694 h 0.99 q 0,0.66 0.385,1.045 0.385,0.385 1.045,0.385 0.66,0 1.045,-0.385 0.385,-0.385 0.385,-1.045 v -0.55 q 0,-0.66 -0.385,-1.045 -0.385,-0.385 -1.045,-0.385 h -0.869 v -0.858 l 1.969,-2.09 h -3.3 v -0.902 h 4.422 v 0.924 l -1.936,2.057 q 0.99,0.077 1.562,0.693 0.572,0.605 0.572,1.606 v 0.55 q 0,1.067 -0.66,1.694 -0.649,0.616 -1.771,0.616 z m 8.121,0 q -0.407,0 -0.66,-0.242 -0.242,-0.242 -0.242,-0.627 0,-0.407 0.242,-0.66 0.253,-0.253 0.66,-0.253 0.407,0 0.649,0.253 0.253,0.253 0.253,0.66 0,0.385 -0.253,0.627 -0.242,0.242 -0.649,0.242 z m 8,0 q -1.111,0 -1.771,-0.638 -0.649,-0.649 -0.649,-1.727 v -3.52 q 0,-1.078 0.649,-1.716 0.66,-0.649 1.771,-0.649 1.111,0 1.76,0.649 0.66,0.638 0.66,1.716 v 3.52 q 0,0.715 -0.297,1.254 -0.297,0.528 -0.847,0.825 -0.539,0.286 -1.276,0.286 z m 0,-0.847 q 0.66,0 1.056,-0.418 0.407,-0.429 0.407,-1.1 v -3.52 q 0,-0.671 -0.407,-1.089 -0.396,-0.429 -1.056,-0.429 -0.66,0 -1.067,0.429 -0.396,0.418 -0.396,1.089 v 3.52 q 0,0.671 0.396,1.1 0.407,0.418 1.067,0.418 z m 0,-2.673 q -0.297,0 -0.484,-0.165 -0.176,-0.165 -0.176,-0.473 0,-0.297 0.176,-0.451 0.187,-0.165 0.484,-0.165 0.297,0 0.473,0.165 0.187,0.154 0.187,0.451 0,0.308 -0.187,0.473 -0.176,0.165 -0.473,0.165 z"
     id="text12"
     style="font-size:11px;letter-spacing:1.4;text-anchor:end;fill:#6f7570"
     aria-label="AGPL-3.0" />
</svg>
